/* XPM */
static char * makefile[] = {
"28 28 6 1",
"X	c Gray75 s backgroundToolBarColor",
"o	c Gray60",
"O	c white",
"+	c Gray40",
"@	c Gray90",
"#	c white",
"XXXXXXXXXoooXXXXXXXXXXXXXXXX",
"XXXXXXXoooOoooXXXXXXXXXXXXXX",
"XXXXXXXo++o++oXXXXXXXXXXXXXX",
"XXXXXXoo+ooo+ooXXXXXXXXXXXXX",
"XXXXXXo++o++++oXXXXXXXXXXXXX",
"XXXXXXoo++o++ooXXXXXXXXXXXXX",
"XXXXXXXo+++++ooooXXXXXXXXXXX",
"XXXXXXXooo+oooo@oXXoXXXXXXXX",
"XXXXXXXXXooo@o@@@oo@oXXXXXXX",
"XXXXXXXXXo@@@@@@@@@@ooXXXXXX",
"XXXXXXXXXXo@@@ooo@@@oXXXXXXX",
"XXXXXXXXXXo@@o@o#o@@oXXXXXXX",
"XXXXXXXXoo@@o@o###o@@ooXXXXX",
"XXXXXXXXo@@@oo####o@@@oXXXXX",
"XXXXXXXXooo@o@o###o@oooXXXXX",
"XXXXXXXXXXo@@o@o#o@@oXXXXXXX",
"XXXXXXXXXXo@@@ooo@@@oXXXXXXX",
"XXXXXXXXXo@@@@@@@@@@@oXXXXXX",
"XXXXXXXXXoo@oo@@oooooXXXXXXX",
"XXXXXXXoooXooo@@oXXoXXXXXXXX",
"XXXXXXXo++o++ooooXXXXXXXXXXX",
"XXXXXXoo+ooo+ooXXXXXXXXXXXXX",
"XXXXXXo++o++++oXXXXXXXXXXXXX",
"XXXXXXoo++o++ooXXXXXXXXXXXXX",
"XXXXXXXo+++++oXXXXXXXXXXXXXX",
"XXXXXXXooo+oooXXXXXXXXXXXXXX",
"XXXXXXXXXoooXXXXXXXXXXXXXXXX",
"XXXXXXXXXXXXXXXXXXXXXXXXXXXX"};
