#define noname_width 28
#define noname_height 28
static char noname_bits[] = {
 0x00,0x0e,0x00,0x00,0x80,0x3b,0x00,0x00,0x80,0x24,0x00,0x00,0xc0,0x6e,0x00,
 0x00,0x40,0x42,0x00,0x00,0xc0,0x64,0x00,0x00,0x80,0xe0,0x01,0x00,0x80,0x7b,
 0x09,0x00,0x00,0x2e,0x16,0x00,0x00,0x02,0x30,0x00,0x00,0xc4,0x11,0x00,0x00,
 0xa4,0x12,0x00,0x00,0x53,0x64,0x00,0x00,0x31,0x44,0x00,0x00,0x57,0x74,0x00,
 0x00,0xa4,0x12,0x00,0x00,0xc4,0x11,0x00,0x00,0x02,0x20,0x00,0x00,0x36,0x1f,
 0x00,0x80,0x3b,0x09,0x00,0x80,0xe4,0x01,0x00,0xc0,0x6e,0x00,0x00,0x40,0x42,
 0x00,0x00,0xc0,0x64,0x00,0x00,0x80,0x20,0x00,0x00,0x80,0x3b,0x00,0x00,0x00,
 0x0e,0x00,0x00,0x00,0x00,0x00,0x00};
