#define noname_width 28
#define noname_height 28
static char noname_bits[] = {
 0x00,0x00,0x00,0x00,0x80,0x3b,0x00,0x00,0x00,0x00,0x00,0x00,0xc0,0x6e,0x00,
 0x00,0x00,0x00,0x00,0x00,0xc0,0x64,0x00,0x00,0x00,0x00,0x00,0x00,0x80,0x7b,
 0x09,0x00,0x00,0x00,0x00,0x00,0x00,0x02,0x30,0x00,0x00,0x00,0x00,0x00,0x00,
 0xa4,0x12,0x00,0x00,0x00,0x00,0x00,0x00,0x31,0x44,0x00,0x00,0x00,0x00,0x00,
 0x00,0xa4,0x12,0x00,0x00,0x00,0x00,0x00,0x00,0x02,0x20,0x00,0x00,0x00,0x00,
 0x00,0x80,0x3b,0x09,0x00,0x00,0x00,0x00,0x00,0xc0,0x6e,0x00,0x00,0x00,0x00,
 0x00,0x00,0xc0,0x64,0x00,0x00,0x00,0x00,0x00,0x00,0x80,0x3b,0x00,0x00,0x00,
 0x00,0x00,0x00,0x00,0x00,0x00,0x00};
