/* XPM */
static char * copy[] = {
"33 33 4 1",
"X	c Gray75 s backgroundToolBarColor",
"o	c Gray60",
"O	c white",
"+	c Gray60",
"XXXXXXXXXXXXXXXXXXXXXXXXXXXXXXXXX",
"XXXXXXXXXXXXXXXXXXXXXXXXXXXXXXXXX",
"XXXXXXXXoooooooooXXXXXXXXXXXXXXXX",
"XXXXXXXXoOOOOOOOooXXXXXXXXXXXXXXX",
"XXXXXXXXoOOOOOOOo+oXXXXXXXXXXXXXX",
"XXXXXXXXoOoooooOooooXXXXXXXXXXXXX",
"XXXXXXXXoOOOOOOOOOOoXXXXXXXXXXXXX",
"XXXXXXXXoOooooOOOOOoXXXXXXXXXXXXX",
"XXXXXXXXoOOOOOOOOOOoXXXXXXXXXXXXX",
"XXXXXXXXoOOOOOoooooooooXXXXXXXXXX",
"XXXXXXXXoOooOOoOOOOOOOooXXXXXXXXX",
"XXXXXXXXoOOOOOoOOOOOOOo+oXXXXXXXX",
"XXXXXXXXoOOOOOoOoooooOooooXXXXXXX",
"XXXXXXXXoOOOOOoOOOOOOOOOOoXXXXXXX",
"XXXXXXXXoOOOOOoOooooOOOOOoXXXXXXX",
"XXXXXXXXoooooooOOOOOOOOOOoXXXXXXX",
"XXXXXXXXXXXXXXoOOOOOOOOOOoXXXXXXX",
"XXXXXXXXXXXXXXoOoooooooOOoXXXXXXX",
"XXXXXXXXXXXXXXoOOOOOOOOOOoXXXXXXX",
"XXXXXXXXXXXXXXoOOOOOOOOOOoXXXXXXX",
"XXXXXXXXXXXXXXoOOOOOOOOOOoXXXXXXX",
"XXXXXXXXXXXXXXoOOOOOOOOOOoXXXXXXX",
"XXXXXXXXXXXXXXooooooooooooXXXXXXX",
"XXXXXXXXXXXXXXXXXXXXXXXXXXXXXXXXX",
"XXXXXXXXXXXXXXXXXXXXXXXXXXXXXXXXX",
"XXXXXXXXoooXXXXXXXXXXXXXXXXXXXXXX",
"XXXXXXXoXXXoXXooXXoooXXoXXoXXXXXX",
"XXXXXXXoXXXXXoXXoXoXXoXoXXoXXXXXX",
"XXXXXXXoXXXXXoXXoXoXXoXoXXoXXXXXX",
"XXXXXXXoXXXoXoXXoXoXXoXXooXXXXXXX",
"XXXXXXXXoooXXXooXXoooXXXoXXXXXXXX",
"XXXXXXXXXXXXXXXXXXoXXXXoXXXXXXXXX",
"XXXXXXXXXXXXXXXXXXXXXXXXXXXXXXXXX"};
