/* XPM */
static char * cut[] = {
"28 28 4 1",
"X	c Gray75 s backgroundToolBarColor",
"o	c black s foregroundToolBarColor",
"O	c Gray90",
"+	c white",
"XXXXXXXXXXXXXXXXXXXXXXXXXXXX",
"XXXXXXXXXXXXXXXXXXXXXXXXXXXX",
"XXXXXXXXXXXXXXXXXXXXXXXXXXXX",
"XXXXXXXXXXXXXXXXXXXXXXXXXXXX",
"XXXXXXXXXXXXXXXXXXXXXXXXXXXX",
"XXXXXXXXXXXXXXXXXXXXXXXXXXXX",
"XXXXXoooooXXXXXXXXXXXXXXXXXX",
"XXXXooXXXooXXXXXXXXXXXXXXXXX",
"XXXooXXXXXooXXXXXXXXXXoooXXX",
"XXXoXXXXXXXoXXXXXXXXooOOooXX",
"XXXooXXXXXoooXXXXXooOOooXXXX",
"XXXXooXXXoooooXXXoooooXXXXXX",
"XXXXXoooooXXXooooooXXXXXXXXX",
"XXXXXXXXXXXXXXo+oXXXXXXXXXXX",
"XXXXXoooooXXXooooooXXXXXXXXX",
"XXXXooXXXoooooXXXoooooXXXXXX",
"XXXooXXXXXoooXXXXXooOOooXXXX",
"XXXoXXXXXXXoXXXXXXXXooOOooXX",
"XXXooXXXXXooXXXXXXXXXXoooXXX",
"XXXXooXXXooXXXXXXXXXXXXXXXXX",
"XXXXXoooooXXXXXXXXXXXXXXXXXX",
"XXXXXXXXXXXXXXXXXXXXXXXXXXXX",
"XXXXXXXXXXXXXXXXXXXXXXXXXXXX",
"XXXXXXXXXXXXXXXXXXXXXXXXXXXX",
"XXXXXXXXXXXXXXXXXXXXXXXXXXXX",
"XXXXXXXXXXXXXXXXXXXXXXXXXXXX",
"XXXXXXXXXXXXXXXXXXXXXXXXXXXX",
"XXXXXXXXXXXXXXXXXXXXXXXXXXXX"};
