#define noname_width 28
#define noname_height 28
static char noname_bits[] = {
 0x00,0x00,0x00,0x00,0x00,0x00,0x00,0x00,0x00,0x00,0x00,0x00,0x00,0x00,0x00,
 0x00,0x00,0x00,0x00,0x00,0x00,0x00,0x00,0x00,0xe0,0x03,0x00,0x00,0x30,0x06,
 0x00,0x00,0x18,0x0c,0xc0,0x01,0x08,0x08,0x30,0x03,0x18,0x1c,0xcc,0x00,0x30,
 0x3e,0x3e,0x00,0xe0,0xe3,0x07,0x00,0x00,0x40,0x01,0x00,0xe0,0xe3,0x07,0x00,
 0x30,0x3e,0x3e,0x00,0x18,0x1c,0xcc,0x00,0x08,0x08,0x30,0x03,0x18,0x0c,0xc0,
 0x01,0x30,0x06,0x00,0x00,0xe0,0x03,0x00,0x00,0x00,0x00,0x00,0x00,0x00,0x00,
 0x00,0x00,0x00,0x00,0x00,0x00,0x00,0x00,0x00,0x00,0x00,0x00,0x00,0x00,0x00,
 0x00,0x00,0x00,0x00,0x00,0x00,0x00};
