#define noname_width 28
#define noname_height 28
static char noname_bits[] = {
 0x00,0x00,0x00,0x00,0x00,0x00,0x00,0x00,0x00,0x00,0x00,0x00,0x00,0x00,0x00,
 0x00,0x00,0x00,0x00,0x00,0x00,0x00,0x00,0x00,0x00,0x00,0x00,0x00,0x30,0x06,
 0x00,0x00,0x00,0x00,0x00,0x00,0x08,0x08,0x30,0x03,0x00,0x00,0x00,0x00,0x30,
 0x3e,0x3e,0x00,0x00,0x00,0x00,0x00,0x00,0x40,0x01,0x00,0x00,0x00,0x00,0x00,
 0x30,0x3e,0x3e,0x00,0x00,0x00,0x00,0x00,0x08,0x08,0x30,0x03,0x00,0x00,0x00,
 0x00,0x30,0x06,0x00,0x00,0x00,0x00,0x00,0x00,0x00,0x00,0x00,0x00,0x00,0x00,
 0x00,0x00,0x00,0x00,0x00,0x00,0x00,0x00,0x00,0x00,0x00,0x00,0x00,0x00,0x00,
 0x00,0x00,0x00,0x00,0x00,0x00,0x00};
