/* XPM */
static char * bug_xpm[] = {
"28 28 6 1",
"X	c Gray75 s backgroundToolBarColor",
"o	c Gray60",
"O	c Gray40",
"+	c Gray60",
"@	c white",
"#	c Gray90",
"XXXXXXXXXXXXXXXXXXXXXXXXXXXX",
"XXXXXXXXXXXXXXXXXXXXXXXXXXXX",
"XXXXXXooooooooooooooooXXXXXX",
"XXXXXoooooooooOoOoOoOooXXXXX",
"XXXXXoooooooooOoOoOoOooXXXXX",
"XXXXXoooooooooooooooooo+XXXX",
"XXXXXXo@@@@@@@@@@@##Xo++XXXX",
"XXXXXo@@@@@@@@@@@@##XXo+XXXX",
"XXXXXo@@@@@@@@@@@@##XXoXXXXX",
"XXXXXo@@@@@@@@@@@@##XXo+XXXX",
"XXXXXo@@@@@@@@@@@@##XXo+XXXX",
"XXXXXo@@@@@@o@@oo@##XXo+XXXX",
"XXXXXo@@@o@@o@oooo##XXo+XXXX",
"XXXXXo@@@@o@oo@ooo##XXo+XXXX",
"XXXXXo@@@@@oooooo@##XXo+XXXX",
"XXXXXo@ooo@ooooo@@##XXo+XXXX",
"XXXXXo@@@oo@oooooo##XXo+XXXX",
"XXXXXo@@o@ooooo@@@##XXo+XXXX",
"XXXXXo@oooooo@@o@@##XXo+XXXX",
"XXXXXo@oooooo@@@o@##XXo+XXXX",
"XXXXXo@ooooooo@@@@##XXo+XXXX",
"XXXXXo@ooooo@o@@@@##XXo+XXXX",
"XXXXXo@@ooo@@o@@@@##XXo+XXXX",
"XXXXXo@@@@@@@@@@@@##XXo+XXXX",
"XXXXXXoooooooooooooooo++XXXX",
"XXXXXX++++++++++++++++++XXXX",
"XXXXXXX++++++++++++++++XXXXX",
"XXXXXXXXXXXXXXXXXXXXXXXXXXXX"};
