/* XPM */
static char * bug_xpm[] = {
"33 33 6 1",
"X	c Gray75 s backgroundToolBarColor",
"o	c Gray60",
"O	c Gray40",
"+	c Gray60",
"@	c white",
"#	c Gray90",
"XXXXXXXXXXXXXXXXXXXXXXXXXXXXXXXXX",
"XXXXXXXXXooooooooooooooooXXXXXXXX",
"XXXXXXXXoooooooooOoOoOoOooXXXXXXX",
"XXXXXXXXoooooooooOoOoOoOooXXXXXXX",
"XXXXXXXXoooooooooooooooooo+XXXXXX",
"XXXXXXXXXo@@@@@@@@@@@##Xo++XXXXXX",
"XXXXXXXXo@@@@@@@@@@@@##XXo+XXXXXX",
"XXXXXXXXo@@@@@@@@@@@@##XXo+XXXXXX",
"XXXXXXXXo@@@@@@o@@oo@##XXo+XXXXXX",
"XXXXXXXXo@@@o@@o@oooo##XXo+XXXXXX",
"XXXXXXXXo@@@@o@oo@ooo##XXo+XXXXXX",
"XXXXXXXXo@@@@@oooooo@##XXo+XXXXXX",
"XXXXXXXXo@ooo@ooooo@@##XXo+XXXXXX",
"XXXXXXXXo@@@oo@oooooo##XXo+XXXXXX",
"XXXXXXXXo@@o@ooooo@@@##XXo+XXXXXX",
"XXXXXXXXo@oooooo@@o@@##XXo+XXXXXX",
"XXXXXXXXo@oooooo@@@o@##XXo+XXXXXX",
"XXXXXXXXo@ooooooo@@@@##XXo+XXXXXX",
"XXXXXXXXo@ooooo@o@@@@##XXo+XXXXXX",
"XXXXXXXXo@@ooo@@o@@@@##XXo+XXXXXX",
"XXXXXXXXo@@@@@@@@@@@@##XXo+XXXXXX",
"XXXXXXXXXoooooooooooooooo++XXXXXX",
"XXXXXXXXX++++++++++++++++++XXXXXX",
"XXXXXXXXXX++++++++++++++++XXXXXXX",
"XXXXXXXXXXXXXXXoXXXXXXXXXXXXXXXXX",
"XXXXXooooXXXXXXoXXXXXXXXXXXXXXXXX",
"XXXXXoXXXoXXoXXoooXXoXoXXoooXXXXX",
"XXXXXoXXXoXoXoXoXXoXoXoXoXXoXXXXX",
"XXXXXoXXXoXoooXoXXoXoXoXoXXoXXXXX",
"XXXXXoXXXoXoXXXoXXoXoXoXXoooXXXXX",
"XXXXXooooXXXooXoooXXXooXXXXoXXXXX",
"XXXXXXXXXXXXXXXXXXXXXXXXXooXXXXXX",
"XXXXXXXXXXXXXXXXXXXXXXXXXXXXXXXXX"};
