/* XPM */
static char * disk[] = {
"33 33 5 1",
"X	c Gray75 s backgroundToolBarColor",
"o	c Gray60",
"O	c Gray60",
"+	c Gray90",
"@	c Gray40",
"XXXXXXXXXXXXXXXXXXXXXXXXXXXXXXXXX",
"XXXXXXXXXXXXXXXXXXXXXXXXXXXXXXXXX",
"XXXXXXXXXXXXXXXXXXXXXXXXXXXXXXXXX",
"XXXXXXXXooooooooooooooooooXXXXXXX",
"XXXXXXXXoOOo++++++++++oOOoXXXXXXX",
"XXXXXXXXoOOo++++++++++oOOoXXXXXXX",
"XXXXXXXXoOOo++++++++++oOooXXXXXXX",
"XXXXXXXXoOOo++++++++++oOOoXXXXXXX",
"XXXXXXXXoOOo++++++++++oOOoXXXXXXX",
"XXXXXXXXoOOo++++++++++oOOoXXXXXXX",
"XXXXXXXXoOOo++++++++++oOOoXXXXXXX",
"XXXXXXXXoOOo++++++++++oOOoXXXXXXX",
"XXXXXXXXoOOooooooooooooOOoXXXXXXX",
"XXXXXXXXoOOOOOOOOOOOOOOOOoXXXXXXX",
"XXXXXXXXoOOOOOOOOOOOOOOOOoXXXXXXX",
"XXXXXXXXoOOooooooooooooOOoXXXXXXX",
"XXXXXXXXoOOo@@@@@@@o++oOOoXXXXXXX",
"XXXXXXXXoOOo@@@@@@@o++oOOoXXXXXXX",
"XXXXXXXXoOOo@@@@@@@o++oOOoXXXXXXX",
"XXXXXXXXXoOo@@@@@@@o++oOOoXXXXXXX",
"XXXXXXXXXXooooooooooooooooXXXXXXX",
"XXXXXXXXXXXXXXXXXXXXXXXXXXXXXXXXX",
"XXXXXXXXXXXXXXXXXXXXXXXXXXXXXXXXX",
"XXXXXXXXXXXXXXXXXXXXXXXXXXXXXXXXX",
"XXXXXXXXXXXXXXXXXXXXXXXXXXXXXXXXX",
"XXXXXXXXXoooXXXXXXXXXXXXXXXXXXXXX",
"XXXXXXXXoXXXXooXXoXXoXXoXXXXXXXXX",
"XXXXXXXXoooXXXXoXoXXoXoXoXXXXXXXX",
"XXXXXXXXXXXoXoooXoXXoXoooXXXXXXXX",
"XXXXXXXXXXXoXoXoXoXoXXoXXXXXXXXXX",
"XXXXXXXXoooXXooXoXoXXXXooXXXXXXXX",
"XXXXXXXXXXXXXXXXXXXXXXXXXXXXXXXXX",
"XXXXXXXXXXXXXXXXXXXXXXXXXXXXXXXXX"};
