#define noname_width 28
#define noname_height 28
static char noname_bits[] = {
 0x00,0x00,0x00,0x00,0x00,0x00,0x00,0x00,0x00,0x00,0x00,0x00,0x00,0x00,0x00,
 0x00,0x00,0x00,0x00,0x00,0xe0,0xff,0x7f,0x00,0x20,0x01,0x48,0x00,0x20,0x01,
 0x48,0x00,0x20,0x01,0x68,0x00,0x20,0x01,0x48,0x00,0x20,0x01,0x48,0x00,0x20,
 0x01,0x48,0x00,0x20,0x01,0x48,0x00,0x20,0x01,0x48,0x00,0x20,0xff,0x4f,0x00,
 0x20,0x00,0x40,0x00,0x20,0x00,0x40,0x00,0x20,0xff,0x4f,0x00,0x20,0x01,0x49,
 0x00,0x20,0x01,0x49,0x00,0x20,0x01,0x49,0x00,0x40,0x01,0x49,0x00,0x80,0xff,
 0x7f,0x00,0x00,0x00,0x00,0x00,0x00,0x00,0x00,0x00,0x00,0x00,0x00,0x00,0x00,
 0x00,0x00,0x00,0x00,0x00,0x00,0x00};
