/* XPM */
static char * disk[] = {
"33 33 6 1",
"X	c Gray75 s backgroundToolBarColor",
"u	c #000000000000 s foregroundToolBarColor",
"o	c black",
"O	c Gray60",
"+	c Gray90",
"@	c Gray40",
"XXXXXXXXXXXXXXXXXXXXXXXXXXXXXXXXX",
"XXXXXXXXXXXXXXXXXXXXXXXXXXXXXXXXX",
"XXXXXXXXXXXXXXXXXXXXXXXXXXXXXXXXX",
"XXXXXXXXooooooooooooooooooXXXXXXX",
"XXXXXXXXoOOo++++++++++oOOoXXXXXXX",
"XXXXXXXXoOOo++++++++++oOOoXXXXXXX",
"XXXXXXXXoOOo++++++++++oOooXXXXXXX",
"XXXXXXXXoOOo++++++++++oOOoXXXXXXX",
"XXXXXXXXoOOo++++++++++oOOoXXXXXXX",
"XXXXXXXXoOOo++++++++++oOOoXXXXXXX",
"XXXXXXXXoOOo++++++++++oOOoXXXXXXX",
"XXXXXXXXoOOo++++++++++oOOoXXXXXXX",
"XXXXXXXXoOOooooooooooooOOoXXXXXXX",
"XXXXXXXXoOOOOOOOOOOOOOOOOoXXXXXXX",
"XXXXXXXXoOOOOOOOOOOOOOOOOoXXXXXXX",
"XXXXXXXXoOOooooooooooooOOoXXXXXXX",
"XXXXXXXXoOOo@@@@@@@o++oOOoXXXXXXX",
"XXXXXXXXoOOo@@@@@@@o++oOOoXXXXXXX",
"XXXXXXXXoOOo@@@@@@@o++oOOoXXXXXXX",
"XXXXXXXXXoOo@@@@@@@o++oOOoXXXXXXX",
"XXXXXXXXXXooooooooooooooooXXXXXXX",
"XXXXXXXXXXXXXXXXXXXXXXXXXXXXXXXXX",
"XXXXXXXXXXXXXXXXXXXXXXXXXXXXXXXXX",
"XXXXXXXXXXXXXXXXXXXXXXXXXXXXXXXXX",
"XXXXXXXXXXXXXXXXXXXXXXXXXXXXXXXXX",
"XXXXXXXXXuuuXXXXXXXXXXXXXXXXXXXXX",
"XXXXXXXXuXXXXuuXXuXXuXXuXXXXXXXXX",
"XXXXXXXXuuuXXXXuXuXXuXuXuXXXXXXXX",
"XXXXXXXXXXXuXuuuXuXXuXuuuXXXXXXXX",
"XXXXXXXXXXXuXuXuXuXuXXuXXXXXXXXXX",
"XXXXXXXXuuuXXuuXuXuXXXXuuXXXXXXXX",
"XXXXXXXXXXXXXXXXXXXXXXXXXXXXXXXXX",
"XXXXXXXXXXXXXXXXXXXXXXXXXXXXXXXXX"};
