/* XPM */
static char * file[] = {
"33 33 5 1",
"X	c Gray75 s backgroundToolBarColor",
"u	c #000000000000 s foregroundToolBarColor",
"o	c black",
"O	c white",
"+	c Gray60",
"XXXXXXXXXXXXXXXXXXXXXXXXXXXXXXXXX",
"XXXXXXXXXXXXXXXXXXXXXXXXXXXXXXXXX",
"XXXXXXXXXXooooooooooXXXXXXXXXXXXX",
"XXXXXXXXXXoOOOOOOOOooXXXXXXXXXXXX",
"XXXXXXXXXXoOOOOOOOOo+oXXXXXXXXXXX",
"XXXXXXXXXXoOOOOOOOOo++oXXXXXXXXXX",
"XXXXXXXXXXoOOOOOOOOoooooXXXXXXXXX",
"XXXXXXXXXXoOOOOOOOOOOOOoXXXXXXXXX",
"XXXXXXXXXXoOOOOOOOOOOOOoXXXXXXXXX",
"XXXXXXXXXXoOOOOOOOOOOOOoXXXXXXXXX",
"XXXXXXXXXXoOOOOOOOOOOOOoXXXXXXXXX",
"XXXXXXXXXXoOOOOOOOOOOOOoXXXXXXXXX",
"XXXXXXXXXXoOOOOOOOOOOOOoXXXXXXXXX",
"XXXXXXXXXXoOOOOOOOOOOOOoXXXXXXXXX",
"XXXXXXXXXXoOOOOOOOOOOOOoXXXXXXXXX",
"XXXXXXXXXXoOOOOOOOOOOOOoXXXXXXXXX",
"XXXXXXXXXXoOOOOOOOOOOOOoXXXXXXXXX",
"XXXXXXXXXXoOOOOOOOOOOOOoXXXXXXXXX",
"XXXXXXXXXXoOOOOOOOOOOOOoXXXXXXXXX",
"XXXXXXXXXXooooooooooooooXXXXXXXXX",
"XXXXXXXXXXXXXXXXXXXXXXXXXXXXXXXXX",
"XXXXXXXXXXXXXXXXXXXXXXXXXXXXXXXXX",
"XXXXXXXXXXXXXXXXXXXXXXXXXXXXXXXXX",
"XXXXXXXXXXXXXXXXXXXXXXXXXXXXXXXXX",
"XXXXXXXXXXXXXXXXXXXXXXXXXXXXXXXXX",
"XXXXXXXXXuuuXXXXXXXXXXXXXXXXXXXXX",
"XXXXXXXXuXXXuXuuuXXXuXXuuuXXXXXXX",
"XXXXXXXXuXXXuXuXXuXuXuXuXXuXXXXXX",
"XXXXXXXXuXXXuXuXXuXuuuXuXXuXXXXXX",
"XXXXXXXXuXXXuXuXXuXuXXXuXXuXXXXXX",
"XXXXXXXXXuuuXXuuuXXXuuXuXXuXXXXXX",
"XXXXXXXXXXXXXXuXXXXXXXXXXXXXXXXXX",
"XXXXXXXXXXXXXXXXXXXXXXXXXXXXXXXXX"};
