/* XPM */
static char * file[] = {
"28 28 4 1",
"X	c Gray75 s backgroundToolBarColor",
"o	c black",
"O	c white",
"+	c Gray60",
"XXXXXXXXXXXXXXXXXXXXXXXXXXXX",
"XXXXXXXXXXXXXXXXXXXXXXXXXXXX",
"XXXXXXXXXXXXXXXXXXXXXXXXXXXX",
"XXXXXXXXXXXXXXXXXXXXXXXXXXXX",
"XXXXXXXXXXXXXXXXXXXXXXXXXXXX",
"XXXXXXXooooooooooXXXXXXXXXXX",
"XXXXXXXoOOOOOOOOooXXXXXXXXXX",
"XXXXXXXoOOOOOOOOo+oXXXXXXXXX",
"XXXXXXXoOOOOOOOOo++oXXXXXXXX",
"XXXXXXXoOOOOOOOOoooooXXXXXXX",
"XXXXXXXoOOOOOOOOOOOOoXXXXXXX",
"XXXXXXXoOOOOOOOOOOOOoXXXXXXX",
"XXXXXXXoOOOOOOOOOOOOoXXXXXXX",
"XXXXXXXoOOOOOOOOOOOOoXXXXXXX",
"XXXXXXXoOOOOOOOOOOOOoXXXXXXX",
"XXXXXXXoOOOOOOOOOOOOoXXXXXXX",
"XXXXXXXoOOOOOOOOOOOOoXXXXXXX",
"XXXXXXXoOOOOOOOOOOOOoXXXXXXX",
"XXXXXXXoOOOOOOOOOOOOoXXXXXXX",
"XXXXXXXoOOOOOOOOOOOOoXXXXXXX",
"XXXXXXXoOOOOOOOOOOOOoXXXXXXX",
"XXXXXXXoOOOOOOOOOOOOoXXXXXXX",
"XXXXXXXooooooooooooooXXXXXXX",
"XXXXXXXXXXXXXXXXXXXXXXXXXXXX",
"XXXXXXXXXXXXXXXXXXXXXXXXXXXX",
"XXXXXXXXXXXXXXXXXXXXXXXXXXXX",
"XXXXXXXXXXXXXXXXXXXXXXXXXXXX",
"XXXXXXXXXXXXXXXXXXXXXXXXXXXX"};
