#define noname_width 28
#define noname_height 28
static char noname_bits[] = {
 0x00,0x00,0x00,0x00,0x00,0x00,0x00,0x00,0x00,0x00,0x00,0x00,0x00,0x00,0x00,
 0x00,0x00,0x00,0x00,0x00,0x80,0xff,0x01,0x00,0x80,0x00,0x03,0x00,0x80,0x00,
 0x05,0x00,0x80,0x00,0x09,0x00,0x80,0x00,0x1f,0x00,0x80,0x00,0x10,0x00,0x80,
 0x00,0x10,0x00,0x80,0x00,0x10,0x00,0x80,0x00,0x10,0x00,0x80,0x00,0x10,0x00,
 0x80,0x00,0x10,0x00,0x80,0x00,0x10,0x00,0x80,0x00,0x10,0x00,0x80,0x00,0x10,
 0x00,0x80,0x00,0x10,0x00,0x80,0x00,0x10,0x00,0x80,0x00,0x10,0x00,0x80,0xff,
 0x1f,0x00,0x00,0x00,0x00,0x00,0x00,0x00,0x00,0x00,0x00,0x00,0x00,0x00,0x00,
 0x00,0x00,0x00,0x00,0x00,0x00,0x00};
