#define noname_width 28
#define noname_height 28
static char noname_bits[] = {
 0x00,0x00,0x00,0x00,0x00,0x00,0x00,0x00,0x00,0x00,0x00,0x00,0x00,0x00,0x00,
 0x00,0x00,0x00,0x00,0x00,0x00,0x00,0x00,0x00,0x00,0x00,0x00,0x00,0x00,0x01,
 0x83,0x01,0xe0,0xe2,0x72,0x01,0x18,0x1e,0x0f,0x01,0x08,0xe0,0x80,0x00,0x10,
 0x18,0x80,0x00,0x10,0x08,0x47,0x00,0x10,0xe8,0x40,0x00,0x20,0x04,0x40,0x00,
 0x20,0xc4,0x20,0x00,0x40,0x32,0x38,0x00,0x40,0x02,0x07,0x00,0x40,0xe2,0x00,
 0x00,0x80,0x1d,0x00,0x00,0x80,0x03,0x00,0x00,0x00,0x00,0x00,0x00,0x00,0x00,
 0x00,0x00,0x00,0x00,0x00,0x00,0x00,0x00,0x00,0x00,0x00,0x00,0x00,0x00,0x00,
 0x00,0x00,0x00,0x00,0x00,0x00,0x00};
