#define noname_width 28
#define noname_height 28
static char noname_bits[] = {
 0x00,0x00,0x00,0x00,0x00,0x00,0x00,0x00,0x00,0x00,0x00,0x00,0x00,0x00,0x00,
 0x00,0x00,0x00,0x00,0x00,0x00,0x00,0x00,0x00,0x00,0x00,0x00,0x00,0x00,0x01,
 0x83,0x01,0x00,0x00,0x00,0x00,0x18,0x1e,0x0f,0x01,0x00,0x00,0x00,0x00,0x10,
 0x18,0x80,0x00,0x00,0x00,0x00,0x00,0x10,0xe8,0x40,0x00,0x00,0x00,0x00,0x00,
 0x20,0xc4,0x20,0x00,0x00,0x00,0x00,0x00,0x40,0x02,0x07,0x00,0x00,0x00,0x00,
 0x00,0x80,0x1d,0x00,0x00,0x00,0x00,0x00,0x00,0x00,0x00,0x00,0x00,0x00,0x00,
 0x00,0x00,0x00,0x00,0x00,0x00,0x00,0x00,0x00,0x00,0x00,0x00,0x00,0x00,0x00,
 0x00,0x00,0x00,0x00,0x00,0x00,0x00};
