/* XPM */
static char * folder[] = {
"28 28 4 1",
"X	c Gray75 s backgroundToolBarColor",
"o	c black",
"O	c white",
"+	c Gray60",
"XXXXXXXXXXXXXXXXXXXXXXXXXXXX",
"XXXXXXXXXXXXXXXXXXXXXXXXXXXX",
"XXXXXXXXXXXXXXXXXXXXXXXXXXXX",
"XXXXXXXXXXXXXXXXXXXXXXXXXXXX",
"XXXXXXXXXXXXXXXXXXXXXXXXXXXX",
"XXXXXXXXXXXXXXXXXXXXXXXXXXXX",
"XXXXXXXXXXXXXXXXXXXXXXXXXXXX",
"XXXXXXXXoXXXXXXXooXXXXXooXXX",
"XXXXXoooOoXXXoooOoXXooo+oXXX",
"XXXooOOOOooooOOOoooo++++oXXX",
"XXXoOOOOOOOOOooo+++++++oXXXX",
"XXXXoOOOOOOoo++++++++++oXXXX",
"XXXXoOOOOOOo++++ooo+++oXXXXX",
"XXXXoOOOOOOo+ooo++++++oXXXXX",
"XXXXXoOOOOo+++++++++++oXXXXX",
"XXXXXoOOOOo+++oo+++++oXXXXXX",
"XXXXXXoOOo++oo+++++oooXXXXXX",
"XXXXXXoOOo++++++oooXXXXXXXXX",
"XXXXXXoOOo+++oooXXXXXXXXXXXX",
"XXXXXXXoo+oooXXXXXXXXXXXXXXX",
"XXXXXXXoooXXXXXXXXXXXXXXXXXX",
"XXXXXXXXXXXXXXXXXXXXXXXXXXXX",
"XXXXXXXXXXXXXXXXXXXXXXXXXXXX",
"XXXXXXXXXXXXXXXXXXXXXXXXXXXX",
"XXXXXXXXXXXXXXXXXXXXXXXXXXXX",
"XXXXXXXXXXXXXXXXXXXXXXXXXXXX",
"XXXXXXXXXXXXXXXXXXXXXXXXXXXX",
"XXXXXXXXXXXXXXXXXXXXXXXXXXXX"};
