#define noname_width 28
#define noname_height 28
static char noname_bits[] = {
 0x00,0x00,0x00,0x00,0x00,0x00,0x00,0x00,0x00,0x00,0x00,0x00,0x00,0x00,0x00,
 0x00,0x00,0x00,0x00,0x00,0x00,0x00,0x00,0x00,0x00,0x00,0x00,0x00,0x00,0x00,
 0x00,0x00,0x00,0x08,0x00,0x00,0x00,0x0c,0x00,0x00,0x00,0x0a,0x00,0x00,0x00,
 0xf9,0x7f,0x00,0x80,0x02,0x40,0x00,0x40,0xff,0x5f,0x00,0xe0,0xff,0x5f,0x00,
 0xc0,0xff,0x5f,0x00,0x80,0xff,0x7f,0x00,0x00,0xff,0x7f,0x00,0x00,0x0e,0x00,
 0x00,0x00,0x0c,0x00,0x00,0x00,0x08,0x00,0x00,0x00,0x00,0x00,0x00,0x00,0x00,
 0x00,0x00,0x00,0x00,0x00,0x00,0x00,0x00,0x00,0x00,0x00,0x00,0x00,0x00,0x00,
 0x00,0x00,0x00,0x00,0x00,0x00,0x00};
