#define noname_width 28
#define noname_height 28
static char noname_bits[] = {
 0x00,0x00,0x00,0x00,0x00,0x00,0x00,0x00,0x00,0x00,0x00,0x00,0x00,0x00,0x00,
 0x00,0x00,0x00,0x00,0x00,0x00,0x40,0x00,0x00,0x00,0xe0,0x00,0x00,0x00,0xd0,
 0x01,0x00,0x00,0xe8,0x03,0x00,0x00,0xf4,0x07,0x00,0x00,0xe2,0x0f,0x00,0x00,
 0xef,0x1f,0x00,0x00,0xe8,0x03,0x00,0x00,0xe8,0x03,0x00,0x00,0xe8,0x03,0x00,
 0x00,0xe8,0x03,0x00,0x00,0xe8,0x03,0x00,0x00,0xe8,0x03,0x00,0x00,0xe8,0x03,
 0x00,0x00,0xe8,0x03,0x00,0x00,0xe8,0x03,0x00,0x00,0x08,0x03,0x00,0x00,0xf8,
 0x03,0x00,0x00,0x00,0x00,0x00,0x00,0x00,0x00,0x00,0x00,0x00,0x00,0x00,0x00,
 0x00,0x00,0x00,0x00,0x00,0x00,0x00};
