/* XPM */
static char * last_win_xpm[] = {
"28 28 5 1",
"       c Gray75 s backgroundToolBarColor",
".      c black",
"x      c white",
"y      c Gray90",
"z      c Gray60",
"                            ",
"                            ",
"                ........... ",
"                .zzzz.zzzz. ",
"         ...........z.zzzz. ",
"         .yyyy.yyyy.z.zzzz. ",
"  ...........y.yyyy.z.zzzz. ",
"  .xxxx.xxxx.y.yyyy.z.zzzz. ",
"  .xxxx.xxxx.y.yyyy........ ",
"  .xxxx.xxxx.y.yyyy.z.zzzz. ",
"  .xxxx.xxxx........z.zzzz. ",
"  .xxxx.xxxx.y.yyyy.z.zzzz. ",
"  ...........y.yyyy.z.zzzz. ",
"  .xxxx.xxxx.y.yyyy.z.zzzz. ",
"  .xxxx.xxxx.y.yyyy........ ",
"  .xxxx.xxxx.y.yyyy.        ",
"  .xxxx.xxxx........        ",
"  .xxxx.xxxx.               ",
"  ...........               ",
"                            ",
"                            ",
"         ..                 ",
"       ...                  ",
"     ...................    ",
"       ...                  ",
"         ..                 ",
"                            ",
"                            "};
