#define noname_width 28
#define noname_height 28
static char noname_bits[] = {
 0x00,0x00,0x00,0x00,0x00,0x00,0x00,0x00,0x00,0x00,0xff,0x07,0x00,0x00,0x00,
 0x00,0x00,0xfe,0x2f,0x04,0x00,0x00,0x00,0x00,0xfc,0x5f,0x28,0x04,0x00,0x00,
 0x00,0x00,0x84,0x50,0xf8,0x07,0x00,0x00,0x00,0x00,0x84,0xf0,0x2f,0x04,0x00,
 0x00,0x00,0x00,0xfc,0x5f,0x28,0x04,0x00,0x00,0x00,0x00,0x84,0x50,0xf8,0x07,
 0x00,0x00,0x00,0x00,0x84,0xf0,0x0f,0x00,0x00,0x00,0x00,0x00,0xfc,0x1f,0x00,
 0x00,0x00,0x00,0x00,0x00,0x00,0x00,0x00,0x00,0x00,0x06,0x00,0x00,0x00,0x00,
 0x00,0x00,0xe0,0xff,0xff,0x00,0x00,0x00,0x00,0x00,0x00,0x06,0x00,0x00,0x00,
 0x00,0x00,0x00,0x00,0x00,0x00,0x00};
