/* XPM */
static char * mail[] = {
"28 28 5 1",
"X	c Gray75 s backgroundToolBarColor",
"o	c black",
"O	c Gray90",
"+	c Gray60",
"@	c white",
"XXXXXXXXXXXXXXXXXXXXXXXXXXXX",
"XXXXXXXXXXXXXXXXXXXXXXXXXXXX",
"XXXXXXXoooooooooooXXXXXXXXXX",
"XXXXXXXoOOOOOOOOOooXXXXXXXXX",
"XXXXXXXoOOOOOOOOOo+oXXXXXXXX",
"XXXXXXXoOOOOOOOOOooooXXXXXXX",
"XXXXXXXoOOOOOOOOOOOOoXXXXXXX",
"XXooooooooooooooooooooooooXX",
"XXo@@@@@@@@@@@@@@@@@@@@@@oXX",
"XXo@oo@@@@@@@@@@@@@@@ooo@oXX",
"XXo@@@@@@@@@@@@@@@@@@o+o@oXX",
"XXo@@@@@@@@@@@@@@@@@@o+o@oXX",
"XXo@@@@@ooooooooo@@@@ooo@oXX",
"XXo@@@@@@@@@@@@@@@@@@@@@@oXX",
"XXo@@@@@ooooooo@@@@@@@@@@oXX",
"XXo@@@@@@@@@@@@@@@@@@@@@@oXX",
"XXo@@@@@ooooo@@@@@@@@@@@@oXX",
"XXo@@@@@@@@@@@@@@@@@@@@@@oXX",
"XXo@@@@@@@@@@@@@@@@@@@@@@oXX",
"XXo@@@@@@@@@@@@@@@@@@@@@@oXX",
"XXooooooooooooooooooooooooXX",
"XXXXXXXoOOOOOOOOOOOOoXXXXXXX",
"XXXXXXXooooooooooooooXXXXXXX",
"XXXXXXXXXXXXXXXXXXXXXXXXXXXX",
"XXXXXXXXXXXXXXXXXXXXXXXXXXXX",
"XXXXXXXXXXXXXXXXXXXXXXXXXXXX",
"XXXXXXXXXXXXXXXXXXXXXXXXXXXX",
"XXXXXXXXXXXXXXXXXXXXXXXXXXXX"};
