/* XPM */
static char * mail[] = {
"33 33 5 1",
"X	c Gray75 s backgroundToolBarColor",
"o	c Gray60",
"O	c Gray90",
"+	c Gray60",
"@	c white",
"XXXXXXXXXXXXXXXXXXXXXXXXXXXXXXXXX",
"XXXXXXXXXXXXXXXXXXXXXXXXXXXXXXXXX",
"XXXXXXXXXXoooooooooooXXXXXXXXXXXX",
"XXXXXXXXXXoOOOOOOOOOooXXXXXXXXXXX",
"XXXXXXXXXXoOOOOOOOOOo+oXXXXXXXXXX",
"XXXXXXXXXXoOOOOOOOOOooooXXXXXXXXX",
"XXXXXXXXXXoOOOOOOOOOOOOoXXXXXXXXX",
"XXXXXooooooooooooooooooooooooXXXX",
"XXXXXo@@@@@@@@@@@@@@@@@@@@@@oXXXX",
"XXXXXo@oo@@@@@@@@@@@@@@@ooo@oXXXX",
"XXXXXo@@@@@@@@@@@@@@@@@@o+o@oXXXX",
"XXXXXo@@@@@@@@@@@@@@@@@@o+o@oXXXX",
"XXXXXo@@@@@ooooooooo@@@@ooo@oXXXX",
"XXXXXo@@@@@@@@@@@@@@@@@@@@@@oXXXX",
"XXXXXo@@@@@ooooooo@@@@@@@@@@oXXXX",
"XXXXXo@@@@@@@@@@@@@@@@@@@@@@oXXXX",
"XXXXXo@@@@@ooooo@@@@@@@@@@@@oXXXX",
"XXXXXo@@@@@@@@@@@@@@@@@@@@@@oXXXX",
"XXXXXo@@@@@@@@@@@@@@@@@@@@@@oXXXX",
"XXXXXo@@@@@@@@@@@@@@@@@@@@@@oXXXX",
"XXXXXooooooooooooooooooooooooXXXX",
"XXXXXXXXXXoOOOOOOOOOOOOoXXXXXXXXX",
"XXXXXXXXXXooooooooooooooXXXXXXXXX",
"XXXXXXXXXXXXXXXXXXXXXXXXXXXXXXXXX",
"XXXXXXXXXXXXXXXXXXXXXoXoXXXXXXXXX",
"XXXXXXXXXXXoXXXoXXXXXXXoXXXXXXXXX",
"XXXXXXXXXXXooXooXooXXoXoXXXXXXXXX",
"XXXXXXXXXXXoXoXoXXXoXoXoXXXXXXXXX",
"XXXXXXXXXXXoXoXoXoooXoXoXXXXXXXXX",
"XXXXXXXXXXXoXoXoXoXoXoXoXXXXXXXXX",
"XXXXXXXXXXXoXoXoXooXooXoXXXXXXXXX",
"XXXXXXXXXXXXXXXXXXXXXXXXXXXXXXXXX",
"XXXXXXXXXXXXXXXXXXXXXXXXXXXXXXXXX"};
