/* XPM */
static char * news_xpm[] = {
"33 33 5 1",
"X	c Gray75 s backgroundToolBarColor",
"o	c Gray60",
"O	c white",
"+	c gray60",
"@	c gray",
"XXXXXXXXXXXXXXXXXXXXXXXXXXXXXXXXX",
"XXXXXXXXXXXXXXXXXXXXXXXXXXXXXXXXX",
"XXXXXXXXXXXXXXXXXXXXXXXXXXXXXXXXX",
"XXXXXXXXXXXXXXXXXXXXXXXXXXXXXXXXX",
"XXXXXXXXXXXXXXXooooooooooXXXXXXXX",
"XXXXXooooooooooOOOoOOOoOOoXXXXXXX",
"XXXXoooOOOoOoooOoOoOoOOoOo++XXXXX",
"XXXXo@oOOooOOooOooOooOooOOo++XXXX",
"XXoo@o@oOOOOOOOOOOOOOOOOOOOo+XXXX",
"XXo@@o@oOooooooooooooooOooOo++XXX",
"XXoo@o@oOOOOOOOOOOOOOOOOOOOOo++XX",
"XXoo@@o@oOoOoOoOoooOoOoooooOo++XX",
"XXo@o@o@oOOoOooOOOOOOoOooOooOo+XX",
"XXooo@@o@oOoooooOoOOooOoooooOo+XX",
"XXXo@o@o@oOOooooOOOOOOOOoOooOo++X",
"XXXXoo@@o@oOoooooOOooooOoooooo++X",
"XXXXo@o@o@oOOooOooOooOoOoooOOo++X",
"XXXXXoo@@o@oOoOoooOooooOooOooo+XX",
"XXXXXoXo@o@oOoooOoOooooOoooo+++XX",
"XXXXXXoXoo@oOoOooooooooo++++++XXX",
"XXXXXXXooooooooo++++++++++++++XXX",
"XXXXXXXXX++++++++++++++++++XXXXXX",
"XXXXXXXXXX+++++++++XXXXXXXXXXXXXX",
"XXXXXXXXXXXXXXXXXXXXXXXXXXXXXXXXX",
"XXXXXXXXXXXXXXXXXXXXXXXXXXXXXXXXX",
"XXXXXXXoXXXoXXXXXXXXXXXXXXXXXXXXX",
"XXXXXXXooXXoXXoXXoXoXoXXooXXXXXXX",
"XXXXXXXoXoXoXoXoXoXoXoXoXXXXXXXXX",
"XXXXXXXoXoXoXoooXoXoXoXXooXXXXXXX",
"XXXXXXXoXXooXoXXXXoXoXXXXoXXXXXXX",
"XXXXXXXoXXXoXXooXXoXoXXooXXXXXXXX",
"XXXXXXXXXXXXXXXXXXXXXXXXXXXXXXXXX",
"XXXXXXXXXXXXXXXXXXXXXXXXXXXXXXXXX"};
