/* XPM */
static char * next_win_xpm[] = {
"28 28 5 1",
"       c Gray75 s backgroundToolBarColor",
".      c black",
"x      c white",
"y      c Gray90",
"z      c Gray60",
"                            ",
"                            ",
" ...........                ",
" .zzzz.zzzz.                ",
" .zzzz.z...........         ",
" .zzzz.z.yyyy.yyyy.         ",
" .zzzz.z.yyyy.y...........  ",
" .zzzz.z.yyyy.y.xxxx.xxxx.  ",
" ........yyyy.y.xxxx.xxxx.  ",
" .zzzz.z.yyyy.y.xxxx.xxxx.  ",
" .zzzz.z........xxxx.xxxx.  ",
" .zzzz.z.yyyy.y.xxxx.xxxx.  ",
" .zzzz.z.yyyy.y...........  ",
" .zzzz.z.yyyy.y.xxxx.xxxx.  ",
" ........yyyy.y.xxxx.xxxx.  ",
"        .yyyy.y.xxxx.xxxx.  ",
"        ........xxxx.xxxx.  ",
"               .xxxx.xxxx.  ",
"               ...........  ",
"                            ",
"                            ",
"                 ..         ",
"                  ...       ",
"    ...................     ",
"                  ...       ",
"                 ..         ",
"                            ",
"                            "};


