#define noname_width 28
#define noname_height 28
static char noname_bits[] = {
 0x00,0x00,0x00,0x00,0x00,0x00,0x00,0x00,0x00,0x00,0x00,0x00,0x00,0x60,0x00,
 0x00,0x00,0x90,0x00,0x00,0xc0,0x6f,0x3f,0x00,0x20,0x04,0x42,0x00,0x20,0xfe,
 0x47,0x00,0x20,0x00,0x40,0x00,0x20,0x00,0x40,0x00,0x20,0x00,0x40,0x00,0x20,
 0x00,0x40,0x00,0x20,0x00,0x40,0x00,0x20,0xf0,0x7f,0x00,0x20,0x10,0x60,0x00,
 0x20,0x10,0xa0,0x00,0x20,0xd0,0xef,0x01,0x20,0x10,0x00,0x01,0x20,0xd0,0x03,
 0x01,0x20,0x10,0x00,0x01,0x20,0x10,0x00,0x01,0x20,0xd0,0x3f,0x01,0xe0,0x1f,
 0x00,0x01,0x00,0x10,0x00,0x01,0x00,0x10,0x00,0x01,0x00,0xf0,0xff,0x01,0x00,
 0x00,0x00,0x00,0x00,0x00,0x00,0x00};
