#define noname_width 28
#define noname_height 28
static char noname_bits[] = {
 0x00,0x00,0x00,0x00,0x00,0x00,0x00,0x00,0x00,0x00,0x00,0x00,0xc0,0xf0,0x00,
 0x00,0x00,0x00,0x00,0x00,0xa0,0x31,0x01,0x00,0x00,0x00,0x00,0x00,0x10,0x33,
 0x72,0x00,0x00,0x00,0x00,0x00,0x08,0x36,0x52,0x00,0x00,0x00,0x00,0x00,0x00,
 0x00,0x80,0x00,0x00,0x00,0x00,0x00,0x00,0x08,0x80,0x00,0x00,0x00,0x00,0x00,
 0x00,0x04,0x20,0x00,0x00,0x00,0x00,0x00,0x00,0x02,0x0f,0x00,0x00,0x00,0x00,
 0x00,0xa0,0x80,0x01,0x00,0x00,0x00,0x00,0x00,0xe0,0x81,0x01,0x00,0x00,0x00,
 0x00,0x00,0x00,0x80,0x11,0x00,0x00,0x00,0x00,0x00,0x00,0x00,0x00,0x00,0x00,
 0x00,0x00,0x00,0x00,0x00,0x00,0x00};
