/* XPM */
static char * replace[] = {
"28 28 2 1",
"X	c Gray75 s backgroundToolBarColor",
"o	c black s foregroundToolBarColor",
"XXXXXXXXXXXXXXXXXXXXXXXXXXXX",
"XXXXXXXXXXXXXXXXXXXXXXXXXXXX",
"XXXXXXXXXXXXXXXXXXXXXXXXXXXX",
"XXXXXXooXXXXooooXXXXXXXXXXXX",
"XXXXXXooXXXXooXXoXXXXXXXXXXX",
"XXXXXoXooXXXooXXoXXXXXXXXXXX",
"XXXXXoXooXXXoooooXXXXXXXXXXX",
"XXXXoXXXooXXooXXXoXXoooXXXXX",
"XXXXooooooXXooXXXoXXooXXXXXX",
"XXXoXXXXXooXooXXXoXXoXoXXXXX",
"XXXoXXXXXooXoooooXXXXXXoXXXX",
"XXXXXXXXXXXXXXXXXXXXXXXoXXXX",
"XXXXXXXXXXXXoXXXXXXXXXXoXXXX",
"XXXXXXXXXXXoXXXXXXXXXXXoXXXX",
"XXXXXXXXXXXoXXXXXXXXXXoXXXXX",
"XXXXXXXXXXoXXXXXXXXXXoXXXXXX",
"XXXXXXXXXoXXXXXXXXXXXXXXXXXX",
"XXXXXXXXXoXXXXXXooooXXXXXXXX",
"XXXXXXXXoXXXXXXooXXXoXXXXXXX",
"XXXXXoXoXXXXXXXooXXXXXXXXXXX",
"XXXXXooXXXXXXXXooXXXXXXXXXXX",
"XXXXXooooXXXXXXooXXXXXXXXXXX",
"XXXXXooXXXXXXXXooXXXXXXXXXXX",
"XXXXXXXXXXXXXXXooXXXoXXXXXXX",
"XXXXXXXXXXXXXXXXooooXXXXXXXX",
"XXXXXXXXXXXXXXXXXXXXXXXXXXXX",
"XXXXXXXXXXXXXXXXXXXXXXXXXXXX",
"XXXXXXXXXXXXXXXXXXXXXXXXXXXX"};
