/* XPM */
static char * replace[] = {
"33 33 2 1",
"X	c Gray75 s backgroundToolBarColor",
"o	c Gray60",
"XXXXXXXXXXXXXXXXXXXXXXXXXXXXXXXXX",
"XXXXXXXXXXXXXXXXXXXXXXXXXXXXXXXXX",
"XXXXXXXXXooXXXXooooXXXXXXXXXXXXXX",
"XXXXXXXXXooXXXXooXXoXXXXXXXXXXXXX",
"XXXXXXXXoXooXXXooXXoXXXXXXXXXXXXX",
"XXXXXXXXoXooXXXoooooXXXoooXXXXXXX",
"XXXXXXXoXXXooXXooXXXoXXooXXXXXXXX",
"XXXXXXXooooooXXooXXXoXXoXoXXXXXXX",
"XXXXXXoXXXXXooXooXXXoXXXXXoXXXXXX",
"XXXXXXoXXXXXooXoooooXXXXXXoXXXXXX",
"XXXXXXXXXXXXXXXXXXXXXXXXXXoXXXXXX",
"XXXXXXXXXXXXXXXoXXXXXXXXXXoXXXXXX",
"XXXXXXXXXXXXXXoXXXXXXXXXXoXXXXXXX",
"XXXXXXXXXXXXXXoXXXXXXXXXoXXXXXXXX",
"XXXXXXXXXXXXXoXXXXXXXXXXXXXXXXXXX",
"XXXXXXXXXXXXoXXXXXXooooXXXXXXXXXX",
"XXXXXXXXXXXXoXXXXXooXXXoXXXXXXXXX",
"XXXXXXXXXXXoXXXXXXooXXXXXXXXXXXXX",
"XXXXXXXXoXoXXXXXXXooXXXXXXXXXXXXX",
"XXXXXXXXooXXXXXXXXooXXXXXXXXXXXXX",
"XXXXXXXXooooXXXXXXooXXXXXXXXXXXXX",
"XXXXXXXXooXXXXXXXXooXXXoXXXXXXXXX",
"XXXXXXXXXXXXXXXXXXXooooXXXXXXXXXX",
"XXXXXXXXXXXXXXXXXXXXXXXXXXXXXXXXX",
"XXXXXXXXXXXXXXXXXoXXXXXXXXXXXXXXX",
"XXXoooXXXXXXXXXXXoXXXXXXXXXXXXXXX",
"XXXoXXoXXoXXoooXXoXooXXXooXXoXXXX",
"XXXoXXoXoXoXoXXoXoXXXoXoXXXoXoXXX",
"XXXoooXXoooXoXXoXoXoooXoXXXoooXXX",
"XXXoXXoXoXXXoXXoXoXoXoXoXXXoXXXXX",
"XXXoXXoXXooXoooXXoXooXoXooXXooXXX",
"XXXXXXXXXXXXoXXXXXXXXXXXXXXXXXXXX",
"XXXXXXXXXXXXXXXXXXXXXXXXXXXXXXXXX"};
