/* XPM */
static char * dict[] = {
"33 33 7 1",
"X	c Gray75 s backgroundToolBarColor",
"u	c #000000000000 s foregroundToolBarColor",
"o	c black",
"O	c Gray90",
"+	c Gray40",
"@	c Gray60",
"#	c white",
"XXXXXXXXXXXXXXXXXXXXXXXXXXXXXXXXX",
"XXXXXXXXXXXXXXXXXXXXXXXXXXXXXXXXX",
"XXXXXXXXoooooooooooooooooXXXXXXXX",
"XXXXXXXoXoOOOOOOOOOOOOO+oXXXXXXXX",
"XXXXXXXooooooooooooooooOoXXXXXXXX",
"XXXXXXoXo++o@@@@@@o+++oOoXXXXXXXX",
"XXXXXXXoo++o@@@@@@@o++oOoXXXXXXXX",
"XXXXXXXoo++o@@@@@@@@o+oOoXXXXXXXX",
"XXXXXXoXo++o@ooooooo@ooOoXXXXXXXX",
"XXXXXXXoo++o@o#####o@@oOoXXXXXXXX",
"XXXXXXXoo++o@ooooooo@@oOoXXXXXXXX",
"XXXXXXoXo++o@@@@@@@@@@oO###XXXXXX",
"XXXXXXXoo++o@ooooooo@@###++XXXXXX",
"XXXXXXXoo++o@@@@@@@@####+XXXXXXXX",
"XXXXXX#Xo++o@@@@@@####++oXXXXXXXX",
"XXXXX###o++o@@@@####++oOoXXXXXXXX",
"XXXX####o++o@@@####+@@oOoXXXXXXXX",
"XXXX+####++o@####++@@ooOoXXXXXXXX",
"XXXXX+####+o####+@@@o+oOoXXXXXXXX",
"XXXXXX+########+@@@o++oooXXXXXXXX",
"XXXXXXo+######+@@@o+++oXXXXXXXXXX",
"XXXXXXXo+####+oooooooooXXXXXXXXXX",
"XXXXXXXXX+##+XXXXXXXXXXXXXXXXXXXX",
"XXXXXXXXXX++XXXXXXXXXXXXXXXXXXXXX",
"XXXXXXXXXXXXXXXXXXXXXXuXuXXXXXXXX",
"XXXXXXXXXuuuXXXXXXXXXXuXuXXXXXXXX",
"XXXXXXXXuXXXXuuuXXXuXXuXuXXXXXXXX",
"XXXXXXXXuuuXXuXXuXuXuXuXuXXXXXXXX",
"XXXXXXXXXXXuXuXXuXuuuXuXuXXXXXXXX",
"XXXXXXXXXXXuXuXXuXuXXXuXuXXXXXXXX",
"XXXXXXXXuuuXXuuuXXXuuXuXuXXXXXXXX",
"XXXXXXXXXXXXXuXXXXXXXXXXXXXXXXXXX",
"XXXXXXXXXXXXXXXXXXXXXXXXXXXXXXXXX"};
