#define noname_width 28
#define noname_height 28
static char noname_bits[] = {
 0x00,0x00,0x00,0x00,0x00,0x00,0x00,0x00,0x00,0x00,0x00,0x00,0x00,0x00,0x00,
 0x00,0xc0,0xff,0x7f,0x00,0xa0,0x00,0x40,0x00,0xe0,0xff,0x5f,0x00,0x50,0x02,
 0x51,0x00,0x60,0x02,0x52,0x00,0x60,0x02,0x54,0x00,0x50,0xfa,0x5b,0x00,0x60,
 0x0a,0x52,0x00,0x60,0xfa,0x53,0x00,0x50,0x02,0x10,0x00,0x60,0xfa,0x03,0x00,
 0x60,0x02,0x00,0x00,0x40,0x02,0x40,0x00,0x40,0x02,0x50,0x00,0x40,0x02,0x50,
 0x00,0x00,0x02,0x58,0x00,0x00,0x02,0x54,0x00,0x00,0x00,0x72,0x00,0x10,0x00,
 0x11,0x00,0x20,0xf0,0x1f,0x00,0x00,0x00,0x00,0x00,0x00,0x00,0x00,0x00,0x00,
 0x00,0x00,0x00,0x00,0x00,0x00,0x00};
