#define noname_width 28
#define noname_height 28
static char noname_bits[] = {
 0x00,0x00,0x00,0x00,0x00,0x00,0x00,0x00,0x00,0x00,0x00,0x00,0x00,0x00,0x00,
 0x00,0x00,0x00,0x00,0x00,0x00,0x00,0x00,0x00,0x00,0x00,0x18,0x00,0x00,0x00,
 0x00,0x00,0x00,0x80,0x01,0x06,0x00,0x00,0x00,0x00,0x00,0x98,0xc7,0x02,0x00,
 0x00,0x00,0x00,0x80,0x01,0x1c,0x01,0x00,0x00,0x00,0x00,0x30,0xc0,0x68,0x00,
 0x00,0x00,0x00,0x00,0x08,0x0c,0x06,0x00,0x00,0x00,0x00,0x00,0x04,0x64,0x00,
 0x00,0x00,0x00,0x00,0x00,0x78,0x06,0x00,0x00,0x00,0x00,0x00,0x00,0x00,0x00,
 0x00,0x00,0x00,0x00,0x00,0x00,0x00,0x00,0x00,0x00,0x00,0x00,0x00,0x00,0x00,
 0x00,0x00,0x00,0x00,0x00,0x00,0x00};
