/* XPM */
static char * xemacs-cap-workshop_xpm[] = {
"33 33 9 1",
" 	c #BDBDBDBDBDBD s backgroundToolBarColor",
"F	c #000000000000 s foregroundToolBarColor",
".	c #ADADADADADAD",
"X	c #000000000000",
"o	c #333333333333",
"O	c #424242424242",
"+	c #949494949494",
"@	c #7F7F7F7F7F7F",
"#	c #636363636363",
"                                 ",
"                                 ",
"                                 ",
"    ....  .....   ..             ",
"   .XXXX ..XXXo   OX.            ",
"    +XXo.. @XXO   @@.            ",
"     XXX.  .XXX   O..            ",
"     OXX+  @XXX   O.             ",
"     @XXo. o@XXO.@@. XXX. .      ",
"      XXX..@ XXX.o.@X.. oX@      ",
"      OXX@O  oXX@O.X@.. .X@      ",
"      .XXXO  +XXX@+XO.   @@      ",
"       XXX    XXX @XXO           ",
"       OXX    OXO  XXXX@         ",
"       .X#    @X@  @XXXXX@       ",
"        X      X    .XXXXX@      ",
"                     .@XXXX      ",
"                  @    .OXX      ",
"                  @#.    XX      ",
"                  @X     X       ",
"                  @oo@..X@       ",
"                   ..XXX         ",
"                                 ",
"                                 ",
"         F        F              ",
" F  F  F F     FF F              ",
" F  F  F F  F F   FFF   FF  FFF  ",
"  F F F  F F  FF  F  F F  F F  F ",
"  F F F  FF     F F  F F  F F  F ",
"   F F   F F    F F  F F  F F  F ",
"   F F   F  F FF  F  F  FF  FFF  ",
"                            F    ",
"                                 "};
