/* XPM */
static char * xemacs-workshop-xx_xpm[] = {
"28 28 8 1",
" 	c #BDBDBDBDBDBD s backgroundToolBarColor",
".	c #BDBDBDBDBDBD",
"X	c #737373737373",
"o	c #737373737373",
"O	c #737373737373",
"+	c #BDBDBDBDBDBD",
"@	c #ADADADADADAD",
"#	c #737373737373",
"                            ",
"                            ",
"                            ",
"                            ",
"                            ",
"  ....  .....   ..          ",
" .XXXX ..XXXo   OX.         ",
"  +XXo.. @XXO   @@.         ",
"   XXX.  .XXX   O..         ",
"   OXX+  @XXX   O.          ",
"   @XXo. o@XXO.@@. XXX. .   ",
"    XXX..@ XXX.o.@X.. oX@   ",
"    OXX@O  oXX@O.X@.. .X@   ",
"    .XXXO  +XXX@+XO.   @@   ",
"     XXX    XXX @XXO        ",
"     OXX    OXO  XXXX@      ",
"     .X#    @X@  @XXXXX@    ",
"      X      X    .XXXXX@   ",
"                   .@XXXX   ",
"                @    .OXX   ",
"                @#.    XX   ",
"                @X     X    ",
"                @oo@..X@    ",
"                 ..XXX      ",
"                            ",
"                            ",
"                            ",
"                            "};
