/* XPM */
static char * sxemacs_icon_xpm[] = {
"48 48 65 1",
" 	c None",
".	c #AB15A9",
"+	c #B916BA",
"@	c #A530A9",
"#	c #626461",
"$	c #FF00FC",
"%	c #A245A4",
"&	c #F810F9",
"*	c #727471",
"=	c #F51EF3",
"-	c #D633D9",
";	c #D03AD4",
">	c #EB28ED",
",	c #F525FB",
"'	c #CA46CB",
")	c #BF51C3",
"!	c #E939EB",
"~	c #E13FE2",
"{	c #F638F9",
"]	c #D652DA",
"^	c #F245F5",
"/	c #C962D0",
"(	c #D45EDC",
"_	c #EF50F5",
":	c #E956EF",
"<	c #E15DE2",
"[	c #BF74C5",
"}	c #D665DA",
"|	c #D670DA",
"1	c #F35EF6",
"2	c #EF69F7",
"3	c #F36CF2",
"4	c #DE80E0",
"5	c #EE7AF8",
"6	c #ABADAA",
"7	c #E882ED",
"8	c #D88FDB",
"9	c #DD8BE7",
"0	c #CF95D8",
"a	c #D890E3",
"b	c #F47FF6",
"c	c #EF83F4",
"d	c #00FFFF",
"e	c #EA8FF1",
"f	c #E79BF1",
"g	c #BBBDBA",
"h	c #C8B4CB",
"i	c #D5AAE0",
"j	c #D4B2DE",
"k	c #E0ABEA",
"l	c #E7A6F4",
"m	c #F6A7FA",
"n	c #D7C6DE",
"o	c #F6B2FE",
"p	c #F5BAFE",
"q	c #E8C8F1",
"r	c #F9BFFA",
"s	c #EACBEB",
"t	c #F4C4F6",
"u	c #DDDFDC",
"v	c #F4D2FB",
"w	c #FFFF01",
"x	c #EEDCF3",
"y	c #F6EFFB",
"z	c #FEFFFC",
"zzzzzzzzzzzzzzzzzzzzzzzzzzzzzzzzzzzzzzzzzzzzzzz#",
"zuuuuuuuuuuuuuuuuuuuuuuuuuuuuuuuuuuuuuuuuuuuuu6#",
"zuuuuuuuuuuuuuuuuuuuuuuuuuuuuuuuuuuuuuuuuuuuuu6#",
"zuuuuuuuuuuuuuuuuuuuuuuuuuuuuuuuuuuuuuuuuuuuuu6#",
"zuuuuuuuuuu#################################uu6#",
"zuuuuuuuuuu#yzyzyzyzyzyzyzyzyzyzyzyzyzyzyzy#uu6#",
"zuuuuuuuuuu#zzzzzzzzzzzzzzzzzzzzzzzzzzzzzzz#6u6#",
"zuuuuuuuuuu#zzzzzzzzzzzzzzzzzzzzzzzzzzzzzzz#6u6#",
"zuuuuuuuuuu#zzzzzzzzzzzzzzzzzzzzzzzzzzzzzzy#6u6#",
"yuuuuuuuuuu#zzzzzzzggg##*##*gg**ggzzzzzzzzz#6u6#",
"zuuuuuuuuuu#zzzzzzzzzzzzzzzzzzzzzzzzzzzzzzz#6u6#",
"zuuuuuuuuusl75259ihni9l0ijhnjzzzzzzzzzzzzzz#6u6#",
"zuuuuuusv9>&^/']&,b||=$$&]|7&,:e2^^2225zzzz#6u6#",
"zuuuuujvf,$^zz+-2&<z^<$${zee=(z|7$$)+~!zzzz#6u6#",
"zuuuuupp!$$:zzz13&/z13^$$fv2'zzre$>z23;zzzy#6u6#",
"zuuuuuom{$$^azz31<zz}53$$cb;#*go_&~gs9**gzz#6u6#",
"zuuuuume{&$$^azzzzzzzce&$$1zzz8m{$4xm|zzzzz#6u6#",
"zuuuuu33b$$$$&:9zzzzzcb1$$/zzzrp&$^3{zzzzzy#6u6#",
"zuuuuuu-;(,$$$$&bzzzzzp7$$:zzzrm&$/4:zzzzzz#6u6#",
"zuuuuuuu+.)<,$$$&|zzzxv{$$=zzzr5$>}]/*#zzzy#6u6#",
"zuuuuuuuuu..)_$$$:zztp^~^$$]zir1&-z|5>zzzzz#6u6#",
"zuuupm2}uuu#_<{$$!ukp:>-{$$^6qv{$(*o_*#gzzz#6u6#",
"zuuub2$:uuu#7e_&$(ip2>6_:&$&[xv$$el3&zzzzzz#6u6#",
"yuuu2_$!}uu#sv^$!0xe&}zip^$$_m2>!--]zzzzzzy#6u6#",
"zuuub^$$28uuyl$&fs7&$_em5~;]zzzz666gggzzzzz#6u6#",
"zuuu23,$=^551{|[8];(/zzzzzzzzzzzzyzzzzzzzzy#6u6#",
"zuuu+@%[/(}/[zzzzzzzzzzzwwwwwwwww##*****#zz#6u6#",
"zuuuuuuuuuu#zzzzzzzzzzyzwwwwwwww666zzzzzzzz#6u6#",
"zuuuuuuuuuu#zzzzyzzyzzzz66####66###*****#zy#6u6#",
"zuuuuuuuuuu#zzzzzzzzzzzz66666666h66zzzzzzzz#6u6#",
"zuuuuuuuuuu#zzzza88zzzzzzyyyyyyzzyzzzzzzzzz#6u6#",
"zuuuuuuuuuu#zzz&=,=8zzzzz##g***#gg*ggzzzzzy#6u6#",
"zuuuuuuuuuu#yz====,&8zzzzzzzzzzyzzzzzzzzzzz#6u6#",
"zuuuuuuuuuu#zz=&&&==azzzzzzzzzzzzzzzzzzzzzz#6u6#",
"zuuuuuuuuuu#zz>>>&=>8dddddddddddddddddzzzzz#6u6#",
"yuuuuuuuuuu#zzz&&>=addddddddd##dddd**#zzzzy#6u6#",
"zuuuuuuuuuu#yzzza8azddddddddd666ddddddzzzzz#6u6#",
"zuuuuuuuuuu#zzzzzzzzz66####6h###*****#zzzzy#6u6#",
"zuuuuuuuuuu#zzzzzzzzz666666666h6yzzzzzzzzzz#6u6#",
"zuuuuuuuuuu#zyzzyzzzzzzzzyzzyzzzzzzzzzzzzzz#6u6#",
"zuuuuuuuuuu#zzzzzzzzzzzzzzzzzzzzzz#***gggzz#6u6#",
"zuuuuuuuuuu#zzzzzzzzzzzzzzzzyzzzzzzzzzzzzzy#6u6#",
"zuuuuuuuuuu#zzzzzzzzzzzzzzzzzzzzzzzzzzzzzzz#6u6#",
"yuuuuuuuuuu#################################6u6#",
"zuuuuuuuuuuuu66666666666666666666666666666666u6#",
"zuuuuuuuuuuuuuuuuuuuuuuuuuuuuuuuuuuuuuuuuuuuuu6#",
"zu666666666666666666666666666666666666666666666#",
"################################################"};
