/* XPM */
static char * sxemacs_icon2_xpm[] = {
"50 50 5 1",
" 	c None",
".	c #2F4F4F",
"+	c #FF00FC",
"@	c #6A5ACD",
"#	c #FFA500",
"                                                  ",
"                                                  ",
"                                    ......    ... ",
"                                        ..    ... ",
"                                    ............. ",
"                                   .##########... ",
"                                  .##............ ",
"                                  .#.         ... ",
"                                 .....        ... ",
"                                              ... ",
"                                   @          ... ",
"                                  @           ... ",
"                                              ... ",
"                                @  @  @       ... ",
"                                @@   @@       ... ",
"                                  @@@         ... ",
"  ................................................",
" @ ...............................................",
" @  ............................................. ",
" @   ...........................................  ",
" @   ...........................................  ",
"     ...........................................  ",
"     ...........................................  ",
" @   ...+++.....................................  ",
"@@   ..+...+.+...+.+++++........................  ",
" @   ..+.....+...+.+............................  ",
"     ...+++...+.+..+.....++.++..+++...++...+++..  ",
"     ......+...+...++++..+.+.+.+..+..+..+.+.....  ",
"     ..+...+..+.+..+.....+.+.+.+..+..+.....++...  ",
"@    ..+...+.+...+.+.....+...+.+..+..+..+....+..  ",
"@@   ...+++..+...+.+++++.+...+..++.+..++..+++...  ",
" @   ...........................................  ",
"     ...........................................  ",
"     ...........................................  ",
"     ...........................................  ",
"     ...........................................  ",
" @    .........................................   ",
" @      ......................................    ",
"@@                       ..#..                    ",
"                          .#.    ....             ",
"                          .#.   .####.            ",
"                          .#.  .##..##.           ",
"                          .#.  .#.  .#.           ",
" @                        .##..##.  .#.           ",
" @                         .####.   .#.           ",
"@ @                         ....    .#.           ",
"                                    .#.           ",
"                                                  ",
"                                                  ",
"                                                  "};
