/* Created with The GIMP */
#define sxemacs_width 317
#define sxemacs_height 126
static unsigned char sxemacs_bits[] = {
   0x00, 0x00, 0x00, 0x00, 0x00, 0x00, 0x00, 0x00, 0x00, 0x00, 0x00, 0x00,
   0x00, 0x00, 0x00, 0x00, 0x00, 0x00, 0x00, 0x00, 0x00, 0x00, 0x00, 0x00,
   0x00, 0x00, 0x00, 0x00, 0x00, 0x00, 0x00, 0x00, 0x00, 0x00, 0x00, 0x00,
   0x00, 0x00, 0x00, 0x00, 0x08, 0x40, 0x00, 0x04, 0x20, 0x00, 0x02, 0x10,
   0x00, 0x01, 0x08, 0x80, 0x00, 0x04, 0x40, 0x00, 0x02, 0x20, 0x00, 0x01,
   0x10, 0x80, 0x00, 0x08, 0x40, 0x00, 0x04, 0x20, 0x00, 0x02, 0x10, 0x00,
   0x01, 0x08, 0x80, 0x00, 0x04, 0x40, 0x00, 0x02, 0x00, 0x00, 0x00, 0x00,
   0x00, 0x00, 0x00, 0x00, 0x00, 0x00, 0x00, 0x00, 0x00, 0x00, 0x00, 0x00,
   0x00, 0x00, 0x00, 0x00, 0x00, 0x00, 0x00, 0x00, 0x00, 0x00, 0x00, 0x00,
   0x00, 0x00, 0x00, 0x00, 0x00, 0x00, 0x00, 0x00, 0x00, 0x00, 0x00, 0x00,
   0x08, 0x40, 0x00, 0x04, 0x20, 0x00, 0x02, 0x10, 0x00, 0x01, 0x08, 0x80,
   0x00, 0x04, 0x40, 0x00, 0x02, 0x20, 0x00, 0x01, 0x10, 0x80, 0x00, 0x08,
   0x40, 0x00, 0x04, 0x20, 0x00, 0x02, 0x10, 0x00, 0x01, 0x08, 0x80, 0x00,
   0x04, 0x40, 0x00, 0x02, 0x08, 0x80, 0x00, 0x04, 0x40, 0x00, 0x02, 0x20,
   0x00, 0x01, 0x10, 0x80, 0x00, 0x08, 0x40, 0x00, 0x04, 0x20, 0x00, 0x02,
   0x10, 0x00, 0x01, 0x08, 0x80, 0x00, 0x04, 0x40, 0x00, 0x02, 0x20, 0x00,
   0x01, 0x10, 0x80, 0x00, 0x08, 0x40, 0x00, 0x04, 0x52, 0x95, 0x55, 0xa9,
   0xca, 0xaa, 0x54, 0x65, 0x55, 0xaa, 0xb2, 0x2a, 0x55, 0x59, 0x95, 0xaa,
   0xac, 0x4a, 0x55, 0x56, 0xa5, 0x2a, 0xab, 0x52, 0x95, 0x55, 0xa9, 0xca,
   0xaa, 0x54, 0x65, 0x55, 0xaa, 0xb2, 0x2a, 0x55, 0x59, 0x95, 0xaa, 0x0c,
   0x18, 0xa0, 0x00, 0x0c, 0x50, 0x00, 0x06, 0x28, 0x00, 0x03, 0x14, 0x80,
   0x01, 0x0a, 0xc0, 0x00, 0x05, 0x60, 0x80, 0x02, 0x30, 0x40, 0x01, 0x18,
   0xa0, 0x00, 0x0c, 0x50, 0x00, 0x06, 0x28, 0x00, 0x03, 0x14, 0x80, 0x01,
   0x0a, 0xc0, 0x00, 0x05, 0x00, 0x40, 0x00, 0x00, 0x20, 0x00, 0x00, 0x10,
   0x00, 0x00, 0x08, 0x00, 0x00, 0x04, 0x00, 0x00, 0x02, 0x00, 0x00, 0x01,
   0x00, 0x80, 0x00, 0x00, 0x40, 0x00, 0x00, 0x20, 0x00, 0x00, 0x10, 0x00,
   0x00, 0x08, 0x00, 0x00, 0x04, 0x00, 0x00, 0x02, 0x08, 0x00, 0x00, 0x04,
   0x00, 0x00, 0x02, 0x00, 0x00, 0x01, 0x00, 0x80, 0x00, 0x00, 0x40, 0x00,
   0x00, 0x20, 0x00, 0x00, 0x10, 0x00, 0x00, 0x08, 0x00, 0x00, 0x04, 0x00,
   0x00, 0x02, 0x00, 0x00, 0x01, 0x00, 0x80, 0x00, 0x00, 0x40, 0x00, 0x00,
   0x00, 0x40, 0x00, 0x00, 0x20, 0x00, 0x00, 0x10, 0x00, 0x00, 0x08, 0x00,
   0x00, 0x04, 0x00, 0x00, 0x02, 0x00, 0x00, 0x01, 0x00, 0x80, 0x00, 0x00,
   0x40, 0x00, 0x00, 0x20, 0x00, 0x00, 0x10, 0x00, 0x00, 0x08, 0x00, 0x00,
   0x04, 0x00, 0x00, 0x02, 0x08, 0x00, 0x00, 0x04, 0x00, 0x00, 0x02, 0x00,
   0x00, 0x01, 0x00, 0x80, 0x00, 0x00, 0x40, 0x00, 0x00, 0x20, 0x00, 0x00,
   0x10, 0x00, 0x00, 0x08, 0x00, 0x00, 0x04, 0x00, 0x00, 0x02, 0x00, 0x00,
   0x01, 0x00, 0x80, 0x00, 0x00, 0x40, 0x00, 0x00, 0x00, 0x40, 0x00, 0x00,
   0x20, 0x00, 0x00, 0x10, 0x00, 0x00, 0x08, 0x00, 0x00, 0x04, 0x00, 0x00,
   0x02, 0x00, 0x00, 0x01, 0x00, 0x80, 0x00, 0x00, 0x40, 0x00, 0x00, 0x20,
   0x00, 0x00, 0x10, 0x00, 0x00, 0x08, 0x00, 0x00, 0x04, 0x00, 0x00, 0x02,
   0x08, 0x00, 0x00, 0x04, 0x00, 0x00, 0x02, 0x00, 0x00, 0x01, 0x00, 0x80,
   0x00, 0x00, 0x40, 0x00, 0x00, 0x20, 0x00, 0x00, 0x10, 0x00, 0x00, 0x08,
   0x00, 0x00, 0x04, 0x00, 0x00, 0x02, 0x00, 0x00, 0x01, 0x00, 0x80, 0x00,
   0x00, 0x40, 0x00, 0x00, 0x00, 0x40, 0x00, 0x00, 0x20, 0x00, 0x00, 0x10,
   0x00, 0x00, 0x08, 0x00, 0x00, 0x04, 0x00, 0x00, 0x02, 0x00, 0x00, 0x01,
   0x00, 0x80, 0x00, 0x00, 0x40, 0x00, 0x00, 0x20, 0x00, 0x00, 0x10, 0x00,
   0x00, 0x08, 0x00, 0x00, 0x04, 0x00, 0x00, 0x02, 0x08, 0x00, 0x00, 0x04,
   0x00, 0x00, 0x02, 0x00, 0x00, 0x01, 0x00, 0x80, 0x00, 0x00, 0x40, 0x00,
   0x00, 0x20, 0x00, 0x00, 0x10, 0x00, 0x00, 0x08, 0x00, 0x00, 0x04, 0x00,
   0x00, 0x02, 0x00, 0x00, 0x01, 0x00, 0x80, 0x00, 0x00, 0x40, 0x00, 0x00,
   0x08, 0x40, 0x00, 0x04, 0x20, 0x00, 0x02, 0xd0, 0x03, 0x01, 0x08, 0x80,
   0x00, 0x04, 0x40, 0x00, 0x02, 0x20, 0x00, 0x01, 0x10, 0x80, 0x00, 0x08,
   0x40, 0x00, 0x04, 0x20, 0x00, 0x02, 0x10, 0x00, 0x01, 0x08, 0x80, 0x00,
   0x04, 0x40, 0x00, 0x02, 0x10, 0x40, 0x00, 0x08, 0x20, 0x00, 0xf6, 0x5a,
   0xed, 0x3e, 0x08, 0x00, 0x01, 0x04, 0x80, 0x00, 0x02, 0x40, 0x00, 0x01,
   0x20, 0x80, 0x00, 0x10, 0x40, 0x00, 0x08, 0x20, 0x00, 0x04, 0x10, 0x00,
   0x02, 0x08, 0x00, 0x01, 0x04, 0x80, 0x00, 0x02, 0xb5, 0xaa, 0xaa, 0x5a,
   0x55, 0xd5, 0x15, 0x01, 0x00, 0x50, 0x5f, 0x55, 0xab, 0x7f, 0xb5, 0x55,
   0x55, 0xd5, 0xaa, 0xaa, 0x6a, 0x55, 0x55, 0xb5, 0xaa, 0xaa, 0x5a, 0x55,
   0x55, 0xad, 0xaa, 0xaa, 0x56, 0x55, 0x55, 0xab, 0xaa, 0xaa, 0x55, 0x0d,
   0x08, 0x80, 0x00, 0x04, 0x40, 0xb8, 0x00, 0x00, 0x48, 0x80, 0x74, 0x80,
   0x6e, 0x55, 0xf7, 0x3f, 0x04, 0x20, 0x00, 0x02, 0x10, 0x00, 0x01, 0x08,
   0x80, 0x00, 0x04, 0x40, 0x00, 0x02, 0x20, 0x00, 0x01, 0x10, 0x80, 0x00,
   0x08, 0x40, 0x00, 0x04, 0x00, 0x40, 0x00, 0x00, 0x20, 0x0b, 0x40, 0x28,
   0x49, 0x15, 0xc4, 0x21, 0x09, 0x00, 0x04, 0xb4, 0x5b, 0x00, 0x00, 0x01,
   0x00, 0x80, 0x00, 0x00, 0x40, 0x00, 0x00, 0x20, 0x00, 0x00, 0x10, 0x00,
   0x00, 0x08, 0x00, 0x00, 0x04, 0x00, 0x00, 0x02, 0x08, 0x00, 0x00, 0x04,
   0x60, 0x01, 0x25, 0x51, 0xa4, 0x50, 0x11, 0x2d, 0x00, 0x48, 0x80, 0x00,
   0xa0, 0xb7, 0xeb, 0xfe, 0x13, 0x00, 0x00, 0x08, 0x00, 0x00, 0x04, 0x00,
   0x00, 0x02, 0x00, 0x00, 0x01, 0x00, 0x80, 0x00, 0x00, 0x40, 0x00, 0x00,
   0x00, 0x40, 0x00, 0x00, 0x20, 0x00, 0x48, 0xef, 0xed, 0x57, 0x05, 0x09,
   0x40, 0x11, 0x11, 0x02, 0x00, 0x14, 0x00, 0x40, 0xed, 0xff, 0x1f, 0x08,
   0x40, 0x00, 0x00, 0x20, 0x00, 0x00, 0x10, 0x00, 0x00, 0x08, 0x00, 0x00,
   0x04, 0x00, 0x00, 0x02, 0x08, 0x00, 0x00, 0x04, 0x0c, 0x08, 0xb2, 0xfb,
   0xff, 0xff, 0x5b, 0x04, 0x09, 0xee, 0xae, 0x5a, 0x85, 0x02, 0x92, 0x08,
   0x20, 0x00, 0xaa, 0xf5, 0xdf, 0x00, 0x04, 0x00, 0x00, 0x02, 0x00, 0x00,
   0x01, 0x00, 0x80, 0x00, 0x00, 0x40, 0x00, 0x00, 0x00, 0x40, 0x00, 0x00,
   0x05, 0x50, 0xfd, 0xff, 0xff, 0xff, 0xbf, 0x28, 0x50, 0xfd, 0xff, 0xff,
   0x9d, 0x40, 0x24, 0x51, 0x05, 0x21, 0x00, 0x00, 0x20, 0xf5, 0x01, 0x20,
   0x00, 0x00, 0x10, 0x00, 0x00, 0x08, 0x00, 0x00, 0x04, 0x00, 0x00, 0x02,
   0x08, 0x00, 0x00, 0x84, 0x40, 0xa4, 0xf6, 0x7f, 0xd5, 0xfe, 0xff, 0x43,
   0x82, 0xfe, 0xff, 0xff, 0xbf, 0x02, 0xfd, 0xaf, 0x2a, 0x94, 0x48, 0x01,
   0x09, 0x00, 0x07, 0x00, 0x00, 0x02, 0x00, 0x00, 0x01, 0x00, 0x80, 0x00,
   0x00, 0x40, 0x00, 0x00, 0x00, 0x40, 0x00, 0x60, 0x81, 0xd0, 0xff, 0xbf,
   0xa8, 0xc1, 0xff, 0x9f, 0x5a, 0xe9, 0xff, 0xff, 0x7f, 0x2b, 0xfd, 0xff,
   0xbf, 0xf0, 0xb7, 0x2e, 0x42, 0x05, 0x04, 0x20, 0x00, 0x00, 0x10, 0x00,
   0x00, 0x08, 0x00, 0x00, 0x04, 0x00, 0x00, 0x02, 0x08, 0x00, 0x00, 0x34,
   0x08, 0xea, 0xff, 0x43, 0x77, 0x2f, 0xff, 0x57, 0xb5, 0xd5, 0xff, 0xff,
   0xd1, 0x55, 0xfd, 0xff, 0x57, 0xfd, 0xff, 0xff, 0xbf, 0xba, 0x06, 0x00,
   0x00, 0x02, 0x00, 0x00, 0x01, 0x00, 0x80, 0x00, 0x00, 0x40, 0x00, 0x00,
   0x08, 0x40, 0x00, 0x2c, 0x40, 0xf8, 0xff, 0xd7, 0xee, 0x6d, 0xfe, 0x5f,
   0xbf, 0xab, 0xff, 0xff, 0xab, 0xdb, 0xf2, 0xbf, 0x6a, 0xd5, 0xff, 0xff,
   0xff, 0x7f, 0x05, 0x20, 0x00, 0x02, 0x10, 0x00, 0x01, 0x08, 0x80, 0x00,
   0x04, 0x40, 0x00, 0x02, 0xa6, 0xaa, 0xaa, 0x0f, 0x91, 0xfe, 0xff, 0xf4,
   0xff, 0x5f, 0xfd, 0x5f, 0xef, 0x5f, 0xff, 0x7f, 0xfe, 0x7d, 0xf5, 0x5f,
   0xbd, 0xd5, 0xff, 0x6f, 0xff, 0xff, 0xab, 0x4a, 0xd5, 0xa8, 0xaa, 0x6a,
   0x54, 0x55, 0x35, 0xaa, 0xaa, 0x1a, 0x55, 0x15, 0x1c, 0xa0, 0x00, 0x0c,
   0x80, 0xfa, 0xff, 0xd5, 0xff, 0xff, 0xfa, 0xbf, 0xfe, 0x77, 0xff, 0xff,
   0xf5, 0xef, 0xeb, 0x9f, 0xf7, 0xb7, 0xff, 0xd7, 0xaa, 0x7f, 0x0e, 0x50,
   0x00, 0x07, 0x28, 0x80, 0x03, 0x14, 0xc0, 0x01, 0x0a, 0xe0, 0x00, 0x05,
   0x00, 0x40, 0x00, 0x22, 0x55, 0xff, 0x7f, 0x3e, 0xb4, 0xdd, 0xfa, 0xaf,
   0x5b, 0xad, 0xfe, 0xff, 0xbe, 0x5b, 0xfa, 0xf3, 0xff, 0xae, 0xff, 0x7b,
   0x5f, 0x7f, 0x07, 0x20, 0x00, 0x00, 0x10, 0x00, 0x00, 0x08, 0x00, 0x00,
   0x04, 0x00, 0x00, 0x02, 0x08, 0x00, 0x00, 0x05, 0x80, 0xff, 0xff, 0x1a,
   0xf0, 0xff, 0xea, 0x5f, 0xfb, 0xdd, 0xfe, 0xff, 0x8d, 0x42, 0xf2, 0xa7,
   0xdd, 0xad, 0xff, 0xf7, 0x7f, 0xfd, 0x06, 0x00, 0x00, 0x02, 0x00, 0x00,
   0x01, 0x00, 0x80, 0x00, 0x00, 0x40, 0x00, 0x00, 0x00, 0x40, 0x80, 0x51,
   0x6a, 0xff, 0x1f, 0x1f, 0xe0, 0xd5, 0xf5, 0xef, 0x51, 0xab, 0xfe, 0xff,
   0x9a, 0x14, 0xf5, 0x3a, 0x2c, 0xd1, 0xff, 0xf9, 0xfd, 0xbe, 0x03, 0x20,
   0x00, 0x00, 0x10, 0x00, 0x00, 0x08, 0x00, 0x00, 0x04, 0x00, 0x00, 0x02,
   0x08, 0x00, 0xc0, 0x83, 0xc8, 0xff, 0x7f, 0x1a, 0xc0, 0xbf, 0xe5, 0x8f,
   0xf1, 0xde, 0xfa, 0xff, 0xfb, 0x20, 0xfc, 0x1a, 0x58, 0x92, 0xff, 0xcb,
   0xf7, 0x7a, 0x05, 0x00, 0x00, 0x02, 0x00, 0x00, 0x01, 0x00, 0x80, 0x00,
   0x00, 0x40, 0x00, 0x00, 0x00, 0x40, 0xc0, 0x08, 0xf5, 0xff, 0x9f, 0x03,
   0x80, 0x6a, 0xd7, 0xef, 0xb1, 0xb5, 0xfe, 0xff, 0x1a, 0x82, 0x76, 0x0f,
   0x04, 0xe1, 0xff, 0x9d, 0x5d, 0xbb, 0x05, 0x20, 0x00, 0x00, 0x10, 0x00,
   0x00, 0x08, 0x00, 0x00, 0x04, 0x00, 0x00, 0x02, 0x08, 0x00, 0x40, 0x21,
   0xd0, 0xff, 0xbf, 0x16, 0x80, 0xdf, 0xda, 0x97, 0x61, 0xb5, 0xf9, 0xff,
   0x35, 0x10, 0x7e, 0x06, 0x2e, 0x8a, 0xff, 0x8b, 0x6b, 0xbb, 0x01, 0x00,
   0x00, 0x02, 0x00, 0x00, 0x01, 0x00, 0x80, 0x00, 0x00, 0x40, 0x00, 0x00,
   0x00, 0x40, 0x60, 0x84, 0xea, 0xff, 0x5f, 0x07, 0x00, 0xaa, 0xd6, 0xf7,
   0xe0, 0x57, 0xfd, 0xff, 0x8d, 0x44, 0xcf, 0x03, 0x86, 0xe0, 0xff, 0x0c,
   0xad, 0xda, 0x05, 0x20, 0x00, 0x00, 0x10, 0x00, 0x00, 0x08, 0x00, 0x00,
   0x04, 0x00, 0x00, 0x02, 0x08, 0x00, 0xe0, 0x94, 0xf4, 0xff, 0xbf, 0x16,
   0x00, 0xb7, 0xaa, 0xa7, 0x80, 0xda, 0xf2, 0xff, 0x1b, 0x40, 0x5f, 0x01,
   0x14, 0xc9, 0xff, 0x8b, 0xaa, 0x3a, 0x01, 0x00, 0x00, 0x02, 0x00, 0x00,
   0x01, 0x00, 0x80, 0x00, 0x00, 0x40, 0x00, 0x00, 0x00, 0x40, 0x20, 0x20,
   0xf9, 0xff, 0x9f, 0x17, 0x00, 0xd5, 0xea, 0xeb, 0xc0, 0xaa, 0xfa, 0xff,
   0x55, 0xd0, 0xe7, 0x01, 0x46, 0xd4, 0xff, 0xcc, 0x55, 0xdd, 0x04, 0x20,
   0x00, 0x00, 0x10, 0x00, 0x00, 0x08, 0x00, 0x00, 0x04, 0x00, 0x00, 0x02,
   0x08, 0x40, 0x70, 0x25, 0xe9, 0xff, 0x3f, 0x1c, 0x00, 0xae, 0x96, 0xd7,
   0xa1, 0x55, 0xe5, 0xff, 0x17, 0x82, 0xd7, 0x03, 0x8a, 0xd0, 0xff, 0x9d,
   0x55, 0xb9, 0x06, 0x70, 0x00, 0x07, 0x30, 0x00, 0x01, 0x3c, 0xc0, 0x01,
   0x0c, 0xc0, 0x00, 0x02, 0x52, 0x15, 0x15, 0x40, 0xfa, 0xff, 0x5f, 0xab,
   0x6a, 0x52, 0xe9, 0x6b, 0x55, 0xab, 0xfa, 0xff, 0x2b, 0xe8, 0xfa, 0x54,
   0x13, 0xea, 0xff, 0xd6, 0x44, 0xea, 0x7b, 0xfb, 0xdb, 0x5e, 0x6f, 0x6d,
   0xaa, 0x5b, 0x55, 0xeb, 0x6d, 0xef, 0x7a, 0x09, 0x04, 0xc0, 0xf0, 0x8a,
   0xf4, 0xff, 0x7f, 0x3a, 0x80, 0x57, 0x8b, 0xeb, 0x80, 0xaa, 0xe2, 0xff,
   0x4b, 0xe8, 0x35, 0x03, 0xa6, 0xe8, 0x7f, 0x05, 0xa9, 0x4a, 0xaf, 0x02,
   0x15, 0x70, 0x09, 0x98, 0xb0, 0x12, 0x00, 0x9e, 0x42, 0x54, 0xc1, 0x06,
   0x08, 0x00, 0x10, 0x50, 0xfa, 0xff, 0xbf, 0x2a, 0x00, 0xab, 0xb6, 0x7d,
   0x80, 0x5b, 0xed, 0xff, 0x2f, 0xf2, 0x1a, 0x00, 0x13, 0xf5, 0x7f, 0xff,
   0x42, 0x7d, 0x01, 0x54, 0x40, 0x02, 0x40, 0x31, 0x0d, 0xa0, 0x5a, 0x00,
   0x88, 0x02, 0x94, 0x01, 0x00, 0x40, 0x70, 0x85, 0xf4, 0xff, 0x7f, 0x69,
   0x00, 0x6f, 0xad, 0xaa, 0x00, 0x55, 0x89, 0xff, 0x4f, 0xfa, 0x0e, 0x01,
   0x53, 0xe4, 0x7f, 0x95, 0x80, 0x2a, 0x20, 0xa9, 0x92, 0x16, 0x00, 0x63,
   0x22, 0x6a, 0xff, 0x03, 0xf0, 0x45, 0x3d, 0x03, 0x08, 0x00, 0x10, 0x50,
   0xfa, 0xff, 0xff, 0xd2, 0x00, 0xdb, 0x77, 0xbf, 0x80, 0xab, 0xd6, 0xff,
   0x0f, 0x3c, 0x07, 0x00, 0x09, 0xf9, 0x7f, 0x07, 0x00, 0x15, 0x40, 0xbf,
   0xe8, 0x4f, 0xd0, 0xaf, 0x88, 0xf4, 0xff, 0x88, 0xde, 0xab, 0x7f, 0x03,
   0x00, 0x40, 0x70, 0x85, 0xf4, 0xff, 0xff, 0x85, 0x01, 0x7c, 0xef, 0x1d,
   0x00, 0x56, 0xa9, 0xff, 0xdf, 0xbe, 0x02, 0x01, 0x23, 0xe9, 0x7f, 0x05,
   0x00, 0x01, 0xfa, 0xbf, 0xe5, 0x1f, 0xf0, 0xdf, 0x91, 0x7e, 0xfd, 0x01,
   0xde, 0xab, 0xf2, 0x02, 0x08, 0x00, 0x90, 0x28, 0xf9, 0xff, 0xff, 0x2b,
   0x07, 0xfd, 0xff, 0x8f, 0x00, 0xaa, 0xca, 0xff, 0xff, 0xd7, 0x01, 0x00,
   0x29, 0xfa, 0xbf, 0x02, 0x72, 0xa1, 0xfa, 0xbf, 0xf8, 0x5f, 0xfa, 0x57,
   0x44, 0xbd, 0x7d, 0xa9, 0xb7, 0xd7, 0x7f, 0x03, 0x00, 0x40, 0x30, 0xa2,
   0xf2, 0xff, 0xff, 0x57, 0x1c, 0xf8, 0xcf, 0x00, 0x00, 0xae, 0x1a, 0xff,
   0xff, 0xaf, 0x01, 0x81, 0xa5, 0xf2, 0x7f, 0x03, 0x60, 0x05, 0xee, 0xbf,
   0xfa, 0x5f, 0xf4, 0x9f, 0x08, 0xbf, 0xfd, 0x81, 0xb7, 0xef, 0xe9, 0x02,
   0x08, 0x00, 0xb0, 0x14, 0xfd, 0xff, 0xff, 0x2f, 0x51, 0xe1, 0x0b, 0x80,
   0x00, 0xaa, 0x52, 0xff, 0xff, 0x73, 0x00, 0x80, 0x49, 0xfa, 0xbf, 0x20,
   0x58, 0xd9, 0xfa, 0x5f, 0xee, 0x1f, 0xea, 0x5f, 0xe0, 0xef, 0x7e, 0xe9,
   0xdb, 0xd7, 0x76, 0x03, 0x00, 0x40, 0xa0, 0xa4, 0xe0, 0xff, 0xff, 0x6f,
   0x45, 0x01, 0x00, 0x00, 0x00, 0x4c, 0x4a, 0xff, 0xff, 0x67, 0x00, 0x01,
   0x92, 0xfa, 0x7f, 0x03, 0x50, 0xb7, 0xd3, 0x5f, 0x95, 0x5f, 0xca, 0x2f,
   0x89, 0xaf, 0xfc, 0xc2, 0xb7, 0xef, 0x6a, 0x03, 0x04, 0x80, 0x60, 0xa9,
   0xfa, 0xff, 0xff, 0xbf, 0x52, 0x05, 0x08, 0x40, 0x00, 0xa8, 0x2a, 0xff,
   0xff, 0x39, 0x00, 0x82, 0x4a, 0xfa, 0x9f, 0x00, 0xbd, 0xfd, 0xee, 0xbf,
   0xef, 0x9f, 0xd7, 0x5f, 0xe4, 0x5f, 0xbf, 0xf4, 0xad, 0xf5, 0xad, 0x06,
   0x55, 0x95, 0xb5, 0xaa, 0xc2, 0xff, 0xff, 0xff, 0x16, 0xb5, 0x52, 0x55,
   0x55, 0x59, 0x55, 0xfe, 0x7f, 0x5b, 0x55, 0xea, 0x48, 0xfa, 0x3f, 0x00,
   0x5c, 0xaf, 0xea, 0xff, 0xba, 0xbf, 0xda, 0xaf, 0xe8, 0xb7, 0xfc, 0xe5,
   0xbb, 0xee, 0xfb, 0x09, 0x18, 0xa0, 0xc0, 0xaa, 0xea, 0xff, 0xff, 0xff,
   0xab, 0x74, 0x14, 0x80, 0x01, 0xae, 0x24, 0xfd, 0xff, 0x7c, 0x80, 0x42,
   0x01, 0xfd, 0x7f, 0x95, 0xde, 0xab, 0xf4, 0xff, 0xe7, 0x7f, 0xe7, 0x1f,
   0xe9, 0x4d, 0x3f, 0xfa, 0xfd, 0xfb, 0x15, 0x06, 0x00, 0x40, 0x80, 0xd5,
   0x8a, 0xff, 0xff, 0xff, 0x5f, 0xc5, 0x08, 0x00, 0x00, 0x54, 0x55, 0xfd,
   0xff, 0x2a, 0x00, 0xc1, 0x2a, 0xf9, 0xff, 0xb2, 0xbf, 0x96, 0xe4, 0xff,
   0xce, 0x7f, 0xcd, 0x77, 0xf2, 0x5b, 0xfe, 0xf2, 0x6d, 0xeb, 0x37, 0x02,
   0x08, 0x00, 0x80, 0xad, 0xab, 0xff, 0xff, 0xff, 0x7f, 0xa9, 0x01, 0x80,
   0x00, 0xb0, 0xaa, 0xfe, 0xff, 0x3a, 0x00, 0x40, 0x00, 0xfe, 0xff, 0xff,
   0xaf, 0x23, 0xfa, 0x7f, 0xf3, 0xff, 0xf1, 0x0f, 0xfd, 0x4b, 0xbf, 0xfc,
   0xb7, 0xf5, 0x17, 0x00, 0x00, 0x40, 0x00, 0xbb, 0x2e, 0xfe, 0xff, 0xff,
   0xff, 0x2b, 0x0e, 0x00, 0x00, 0xb4, 0xaa, 0xf8, 0xff, 0x35, 0x00, 0xe1,
   0xa4, 0xfc, 0xff, 0xff, 0xbf, 0x47, 0xf0, 0xff, 0xc6, 0x7f, 0xc5, 0x5f,
   0xf0, 0x57, 0xbf, 0xf1, 0xae, 0xee, 0x6f, 0x02, 0x08, 0x00, 0x00, 0xd7,
   0xb5, 0xfd, 0xff, 0xff, 0xff, 0x97, 0x1a, 0x80, 0x00, 0xa0, 0xaa, 0xfe,
   0xff, 0x1a, 0x00, 0x20, 0x02, 0xfd, 0xdf, 0xd6, 0xef, 0x88, 0xfa, 0xbf,
   0xe9, 0xdf, 0xf2, 0x97, 0xfe, 0xaa, 0x7f, 0xfe, 0xfb, 0xd5, 0x6f, 0x00,
   0x00, 0x40, 0x00, 0x5e, 0x6f, 0xf9, 0xff, 0xff, 0xff, 0xbf, 0x20, 0x00,
   0x00, 0x64, 0x95, 0xf8, 0xff, 0x35, 0x00, 0x61, 0x28, 0xfd, 0x5f, 0x15,
   0xdf, 0x2a, 0xf0, 0x7f, 0xe9, 0x7f, 0xe5, 0xaf, 0xf8, 0x26, 0x6f, 0x79,
   0x57, 0xdd, 0x5f, 0x02, 0x08, 0x00, 0x00, 0xf8, 0x5d, 0xf5, 0xff, 0xff,
   0xff, 0x5f, 0x75, 0x80, 0x00, 0x60, 0x49, 0xf5, 0xff, 0x2b, 0x00, 0x20,
   0x81, 0xfe, 0xaf, 0x7f, 0xd5, 0x41, 0xfd, 0xdf, 0xf4, 0x5f, 0xf4, 0x2b,
   0xff, 0xc9, 0xbf, 0xfe, 0xbf, 0xbb, 0x7f, 0x00, 0x00, 0x40, 0x00, 0xbc,
   0xfd, 0xc5, 0xff, 0xff, 0xff, 0xff, 0xc5, 0x00, 0x00, 0x44, 0x12, 0xf8,
   0xff, 0x2b, 0x00, 0x61, 0x14, 0xfd, 0xef, 0xaf, 0xb6, 0x15, 0xf1, 0x5f,
   0xe1, 0xef, 0xe9, 0x57, 0xfd, 0x93, 0x7f, 0x7d, 0x55, 0x6b, 0x5f, 0x02,
   0x08, 0x00, 0x00, 0xf4, 0xbf, 0x5a, 0xff, 0xff, 0xff, 0xff, 0x52, 0x81,
   0x00, 0x40, 0x41, 0xf5, 0xff, 0x6b, 0x00, 0x20, 0xa1, 0xfe, 0x6f, 0x55,
   0xed, 0x49, 0xfe, 0x6f, 0xfa, 0x5f, 0xfa, 0x2f, 0x7f, 0xd5, 0xaf, 0xfd,
   0x2b, 0xba, 0x7f, 0x00, 0x08, 0x40, 0x00, 0xc4, 0xfb, 0x57, 0xfe, 0xff,
   0xff, 0xff, 0x97, 0x81, 0x00, 0x64, 0x04, 0xfa, 0xff, 0x57, 0x00, 0x31,
   0x84, 0xfe, 0x6f, 0x55, 0xad, 0x91, 0xf8, 0xaf, 0xea, 0x5f, 0xf2, 0x55,
   0x7e, 0xa5, 0x7f, 0xfd, 0x42, 0xc1, 0x7e, 0x02, 0x10, 0x40, 0x00, 0xcc,
   0xff, 0x5f, 0xf5, 0xff, 0xff, 0xff, 0xa7, 0x02, 0x01, 0x14, 0x00, 0xfd,
   0xff, 0xd7, 0x00, 0x51, 0x51, 0xff, 0xb7, 0x84, 0xf6, 0x4a, 0xfd, 0x37,
   0xfa, 0xb7, 0xfa, 0xaf, 0xfe, 0xd2, 0xaf, 0xfe, 0x08, 0x69, 0x5f, 0x01,
   0xb5, 0xaa, 0x55, 0x59, 0xff, 0x7f, 0xd5, 0xff, 0xff, 0xff, 0x9f, 0x56,
   0xab, 0x32, 0x20, 0xfe, 0xff, 0xaf, 0xab, 0x1e, 0x04, 0xff, 0xb7, 0xb4,
   0xec, 0x12, 0xfa, 0x6f, 0xf2, 0x57, 0xf5, 0xab, 0x7e, 0xe5, 0x7f, 0xfd,
   0xa3, 0x5a, 0xfd, 0x0d, 0x08, 0x80, 0x00, 0x06, 0xee, 0xed, 0xca, 0xff,
   0xff, 0xff, 0xaf, 0x86, 0x00, 0x0c, 0x80, 0xfe, 0xff, 0xd7, 0x01, 0x52,
   0xd1, 0xfe, 0x7b, 0x55, 0x7b, 0xa4, 0xfe, 0x95, 0xfc, 0x5f, 0xfb, 0xc5,
   0x7f, 0xf1, 0xaf, 0x7e, 0x48, 0xdd, 0x5f, 0x04, 0x00, 0x40, 0x00, 0x00,
   0xd0, 0xff, 0x1b, 0xfd, 0xff, 0xff, 0x3f, 0x05, 0x00, 0x0a, 0x12, 0xff,
   0xff, 0xaf, 0x00, 0x18, 0x8a, 0xff, 0xeb, 0xfd, 0xdf, 0xa4, 0xfc, 0x2f,
   0xf9, 0xbb, 0xfa, 0x17, 0xff, 0xe2, 0xaf, 0xff, 0xa9, 0x3d, 0x7d, 0x02,
   0x08, 0x00, 0x00, 0x04, 0xf0, 0xff, 0x6f, 0xfa, 0xff, 0xff, 0x5f, 0x85,
   0x00, 0x42, 0xe0, 0xff, 0xff, 0x5f, 0x01, 0xa9, 0xa0, 0xff, 0xff, 0xbf,
   0x16, 0x95, 0xfe, 0x49, 0xfa, 0x57, 0xff, 0xab, 0xbf, 0xf8, 0xaf, 0x7e,
   0x61, 0x5f, 0x5d, 0x00, 0x00, 0x40, 0x00, 0x00, 0x60, 0xff, 0xde, 0xd1,
   0xff, 0xff, 0x7f, 0x0d, 0x00, 0x07, 0xa4, 0xff, 0xff, 0x5f, 0x01, 0x98,
   0x24, 0xff, 0xf5, 0xfb, 0x6a, 0x55, 0xfd, 0x4f, 0xfa, 0x6f, 0xfa, 0x55,
   0x7f, 0xd1, 0xdf, 0xfd, 0xd2, 0x3c, 0x3d, 0x02, 0x08, 0x00, 0x00, 0x04,
   0x00, 0xf4, 0x7f, 0xab, 0xff, 0xff, 0xbf, 0x8a, 0x80, 0x20, 0xe9, 0xab,
   0xff, 0xbf, 0x01, 0x09, 0xc2, 0xff, 0x1b, 0x98, 0xaa, 0x56, 0xff, 0x12,
   0xfd, 0x55, 0xfd, 0xab, 0x7f, 0xd4, 0x67, 0xff, 0x69, 0x7f, 0x36, 0x00,
   0x00, 0x40, 0x00, 0x00, 0x20, 0xb8, 0xff, 0x2f, 0xff, 0xff, 0x7f, 0x0d,
   0xc0, 0x05, 0xf2, 0xab, 0xff, 0x7f, 0x03, 0x5c, 0x94, 0xff, 0x0b, 0x58,
   0xd5, 0xad, 0xfe, 0x26, 0xfa, 0x5f, 0x7d, 0x6b, 0xff, 0xd4, 0xdf, 0xfa,
   0xdd, 0xf8, 0x1f, 0x02, 0x08, 0x00, 0x00, 0x04, 0x00, 0xe0, 0xfd, 0x5a,
   0xfd, 0xff, 0xff, 0x8a, 0x40, 0x50, 0xfc, 0xba, 0xff, 0x5f, 0x03, 0x05,
   0xa0, 0xff, 0x0d, 0x50, 0xd5, 0xa7, 0xfe, 0x8a, 0xfc, 0x52, 0xff, 0x55,
   0x3f, 0xaa, 0xff, 0xfd, 0xb7, 0x6b, 0x09, 0x00, 0x00, 0x40, 0xfe, 0x7b,
   0x20, 0x80, 0xff, 0x7f, 0xfd, 0xff, 0xff, 0x0d, 0xa0, 0x80, 0xfa, 0xb6,
   0xfe, 0xbf, 0x06, 0x8e, 0xa4, 0xff, 0x1b, 0x50, 0xd5, 0x2e, 0xff, 0x12,
   0xfd, 0xaa, 0xfc, 0x5f, 0xff, 0xdb, 0xbf, 0xf5, 0xb7, 0x56, 0x07, 0x02,
   0x08, 0xa0, 0x05, 0xe0, 0x00, 0x00, 0x76, 0xd7, 0xfa, 0xff, 0x7f, 0x86,
   0x10, 0x22, 0x7f, 0x7f, 0xff, 0x7f, 0x07, 0x25, 0xd0, 0xff, 0x0d, 0x54,
   0xed, 0x43, 0x7f, 0x85, 0xfe, 0xab, 0xfe, 0x5b, 0xff, 0xd6, 0x6f, 0xb7,
   0xda, 0xff, 0x03, 0x00, 0x08, 0x38, 0x20, 0x85, 0x21, 0x00, 0xf9, 0xdf,
   0xe2, 0xff, 0x7f, 0xdd, 0x38, 0x44, 0xfe, 0x6e, 0xff, 0x7f, 0x05, 0x87,
   0xc2, 0xff, 0x0d, 0x55, 0x69, 0x4f, 0xff, 0x12, 0xfc, 0x4a, 0xfd, 0xb7,
   0xfe, 0x95, 0xef, 0xae, 0xfe, 0x7d, 0x00, 0x02, 0xa6, 0x06, 0x84, 0x54,
   0x4b, 0x55, 0xed, 0x7e, 0xed, 0xff, 0xff, 0x36, 0x85, 0x90, 0x9f, 0xdf,
   0xfd, 0xff, 0x56, 0x12, 0xe8, 0xff, 0x56, 0xab, 0xfa, 0xa1, 0x7f, 0x81,
   0x7e, 0xab, 0xfe, 0x5b, 0x7f, 0x6b, 0xf9, 0xff, 0x5b, 0xb7, 0xaa, 0x14,
   0x1c, 0x86, 0x28, 0x69, 0x51, 0x00, 0xe4, 0xeb, 0xd5, 0xff, 0xff, 0xdd,
   0x17, 0xa5, 0xbf, 0xbb, 0xff, 0xff, 0x8d, 0x27, 0xc1, 0xff, 0x0d, 0x12,
   0xf2, 0x0b, 0x7f, 0x13, 0x7e, 0x55, 0xfd, 0x57, 0x5d, 0xae, 0xda, 0x7d,
   0x06, 0xa0, 0x00, 0x05, 0x00, 0x4a, 0x52, 0xd7, 0x21, 0x00, 0xc2, 0x5e,
   0xab, 0xff, 0x7f, 0x0d, 0x43, 0xd4, 0xd7, 0xef, 0xfe, 0x7f, 0x0d, 0x03,
   0xf4, 0x7f, 0x8f, 0x49, 0xbd, 0xd2, 0xbf, 0x40, 0x7f, 0xab, 0x7e, 0xad,
   0xd2, 0xff, 0x87, 0x00, 0x04, 0x40, 0x00, 0x02, 0x08, 0x4b, 0xa4, 0x5e,
   0x03, 0x00, 0x80, 0xdb, 0xaa, 0xff, 0x7f, 0x9d, 0x4b, 0xe9, 0xf7, 0xdd,
   0xfe, 0xff, 0x1b, 0x26, 0xc0, 0xff, 0x44, 0x01, 0x78, 0x85, 0x7f, 0x05,
   0x7e, 0xb5, 0x79, 0xfb, 0xdf, 0x7b, 0x00, 0x00, 0x00, 0x00, 0x00, 0x00,
   0x00, 0x92, 0xaa, 0xd7, 0x23, 0x00, 0x02, 0xb5, 0xd5, 0xff, 0xff, 0x4e,
   0x11, 0xf6, 0xdb, 0x77, 0xfb, 0xff, 0x3a, 0x83, 0xf4, 0x7f, 0x67, 0xa4,
   0xbe, 0xa9, 0xbf, 0x50, 0xbf, 0xeb, 0xa6, 0x6f, 0x3b, 0x08, 0x80, 0x00,
   0x04, 0x40, 0x00, 0x02, 0x08, 0xa7, 0xaa, 0xaf, 0x02, 0x00, 0x00, 0xae,
   0x96, 0xff, 0x7f, 0xc5, 0xa4, 0xea, 0xfb, 0x6e, 0xff, 0xff, 0x13, 0x02,
   0xe0, 0xff, 0x54, 0x00, 0x7d, 0xa3, 0x7f, 0x01, 0x57, 0xdf, 0xef, 0xff,
   0x01, 0x00, 0x00, 0x00, 0x00, 0x00, 0x00, 0x00, 0x00, 0x55, 0xea, 0xdf,
   0x23, 0x00, 0x02, 0xaa, 0xaa, 0xff, 0x7f, 0x2f, 0x12, 0xfe, 0xbd, 0xbd,
   0xfa, 0xff, 0x6d, 0x09, 0xf9, 0x7f, 0x0b, 0x52, 0xbf, 0xc8, 0x9f, 0xa0,
   0xaa, 0xfd, 0x3d, 0x00, 0x00, 0x08, 0x80, 0x00, 0x04, 0x40, 0x00, 0x02,
   0x08, 0xab, 0xaa, 0xbf, 0x06, 0x00, 0x00, 0xaa, 0xaa, 0xff, 0x7f, 0x7d,
   0xa2, 0xfc, 0xfb, 0xeb, 0xf6, 0xff, 0xeb, 0x21, 0xe0, 0x7f, 0x41, 0xa0,
   0xbf, 0xa1, 0xb7, 0x8a, 0xfa, 0xbe, 0x11, 0x00, 0x01, 0x00, 0x00, 0x00,
   0x00, 0x00, 0x00, 0x00, 0x00, 0xa5, 0xd4, 0xaf, 0x27, 0x00, 0x02, 0x16,
   0xa4, 0xff, 0x9f, 0x0e, 0x49, 0x7f, 0x5e, 0xad, 0xfd, 0xff, 0xeb, 0x04,
   0xf4, 0xff, 0x04, 0xf5, 0x5f, 0xd5, 0x6a, 0x75, 0x1f, 0x02, 0x00, 0x00,
   0x00, 0x08, 0x80, 0x00, 0x04, 0x40, 0x00, 0x02, 0x88, 0x4b, 0xf5, 0x7f,
   0x0d, 0x00, 0x00, 0xa6, 0xa4, 0xff, 0xbf, 0x2e, 0x40, 0xff, 0xcd, 0x6d,
   0xe5, 0xff, 0x8b, 0x01, 0xf0, 0xff, 0x55, 0xfd, 0xdf, 0x40, 0xf5, 0xff,
   0x03, 0x00, 0x10, 0x00, 0x01, 0x00, 0x00, 0x00, 0x00, 0x00, 0x00, 0x00,
   0x00, 0xb5, 0x6a, 0x5f, 0x2f, 0x00, 0x02, 0x4a, 0xc8, 0xff, 0x9f, 0x03,
   0xd4, 0x3f, 0x43, 0xab, 0xfa, 0xff, 0x57, 0x00, 0xfc, 0xff, 0xfd, 0xff,
   0xaf, 0xbf, 0x7f, 0x07, 0x00, 0x02, 0x00, 0x00, 0x00, 0x08, 0x80, 0x00,
   0x04, 0x40, 0x00, 0x02, 0x08, 0x55, 0xeb, 0x7f, 0x7a, 0x00, 0x02, 0x0a,
   0x91, 0xff, 0x3f, 0x47, 0x40, 0xdf, 0x43, 0x55, 0xe2, 0xff, 0x1f, 0x00,
   0xf8, 0xff, 0xff, 0xdf, 0x6a, 0xf5, 0x0f, 0x70, 0x00, 0x02, 0x18, 0x00,
   0x01, 0x08, 0x80, 0x00, 0x04, 0x40, 0x00, 0x02, 0xd2, 0xaa, 0xf6, 0xff,
   0xca, 0xaa, 0x54, 0x23, 0xa4, 0xff, 0xcf, 0x00, 0xe8, 0xaf, 0xb7, 0x01,
   0xe9, 0xff, 0xaf, 0xa4, 0xfe, 0xff, 0x6f, 0xb5, 0xfe, 0x5f, 0x53, 0x95,
   0xaa, 0x54, 0x45, 0x55, 0xaa, 0xa2, 0x2a, 0x55, 0x51, 0x95, 0xaa, 0x08,
   0x84, 0xb7, 0xd5, 0xdf, 0x6d, 0x00, 0x01, 0x47, 0xa0, 0xff, 0x97, 0x05,
   0xe9, 0x5f, 0xc1, 0x2b, 0xe8, 0xff, 0xbf, 0x44, 0xff, 0xdf, 0xaa, 0xed,
   0xfb, 0x00, 0x06, 0x60, 0x00, 0x01, 0x30, 0x80, 0x00, 0x18, 0x40, 0x00,
   0x0c, 0x20, 0x00, 0x06, 0x88, 0x5a, 0xf7, 0x7f, 0x75, 0x00, 0x02, 0x01,
   0xe4, 0xff, 0xe7, 0x00, 0xf4, 0xe7, 0x1f, 0x80, 0xf2, 0xff, 0xff, 0xfb,
   0x5f, 0x29, 0xfd, 0xff, 0x40, 0x00, 0x00, 0x00, 0x00, 0x02, 0x00, 0x00,
   0x01, 0x00, 0x80, 0x00, 0x00, 0x40, 0x00, 0x00, 0x80, 0x6a, 0xed, 0xff,
   0xc5, 0x00, 0x80, 0x01, 0xc0, 0xff, 0xa7, 0x90, 0xfc, 0x0f, 0x10, 0x08,
   0xf4, 0xff, 0xff, 0xa7, 0x52, 0xf5, 0xb7, 0x0b, 0x00, 0x00, 0x04, 0x20,
   0x00, 0x00, 0x10, 0x00, 0x00, 0x08, 0x00, 0x00, 0x04, 0x00, 0x00, 0x02,
   0x88, 0x55, 0xf5, 0xff, 0xb5, 0x03, 0x82, 0x00, 0xf4, 0xff, 0x29, 0x00,
   0xff, 0xb7, 0x8a, 0xa0, 0xfb, 0xff, 0x5f, 0x59, 0xed, 0xff, 0x03, 0x08,
   0x40, 0x00, 0x00, 0x00, 0x00, 0x02, 0x00, 0x00, 0x01, 0x00, 0x80, 0x00,
   0x00, 0x40, 0x00, 0x00, 0x80, 0x5b, 0xed, 0xff, 0x27, 0x06, 0xa0, 0x00,
   0xe0, 0xff, 0x51, 0x20, 0xfe, 0x57, 0x12, 0x48, 0xff, 0xff, 0x52, 0xd7,
   0xbe, 0x87, 0x00, 0x00, 0x00, 0x00, 0x04, 0x20, 0x00, 0x00, 0x10, 0x00,
   0x00, 0x08, 0x00, 0x00, 0x04, 0x00, 0x00, 0x02, 0x48, 0xaa, 0xfa, 0xff,
   0x57, 0x1d, 0x22, 0x88, 0xfc, 0x7f, 0x05, 0xc0, 0xff, 0x5f, 0xad, 0xd2,
   0xbf, 0x82, 0xee, 0xfd, 0x17, 0x00, 0x00, 0x08, 0x40, 0x00, 0x00, 0x00,
   0x00, 0x02, 0x00, 0x00, 0x01, 0x00, 0x80, 0x00, 0x00, 0x40, 0x00, 0x00,
   0xc0, 0xaa, 0xea, 0xff, 0x5f, 0x71, 0x2a, 0x00, 0xf9, 0x5f, 0x08, 0xa9,
   0xff, 0xff, 0x2b, 0xa4, 0x55, 0xfd, 0xfd, 0x07, 0x00, 0x80, 0x00, 0x00,
   0x00, 0x00, 0x04, 0x20, 0x00, 0x00, 0x10, 0x00, 0x00, 0x08, 0x00, 0x00,
   0x04, 0x00, 0x00, 0x02, 0x48, 0x91, 0xfa, 0xff, 0x57, 0x42, 0x05, 0x00,
   0xfe, 0x2f, 0x23, 0xf4, 0xff, 0xff, 0xdc, 0x5a, 0xb5, 0x77, 0x47, 0x01,
   0x10, 0x00, 0x00, 0x08, 0x40, 0x00, 0x00, 0x00, 0x00, 0x02, 0x00, 0x00,
   0x01, 0x00, 0x80, 0x00, 0x00, 0x40, 0x00, 0x00, 0x60, 0xa5, 0xf2, 0xff,
   0xdf, 0x0a, 0x00, 0xa0, 0xfe, 0x4f, 0x45, 0xfd, 0xff, 0xdf, 0xba, 0xdb,
   0xff, 0x3f, 0x00, 0x00, 0x00, 0x80, 0x00, 0x00, 0x00, 0x00, 0x04, 0x20,
   0x00, 0x00, 0x10, 0x00, 0x00, 0x08, 0x00, 0x00, 0x04, 0x00, 0x00, 0x02,
   0x6c, 0x2a, 0xf5, 0xff, 0x7f, 0x25, 0x41, 0xca, 0xff, 0xa1, 0xd2, 0xff,
   0xbf, 0xaa, 0xed, 0x7f, 0x1f, 0x30, 0x00, 0x01, 0x18, 0x00, 0x01, 0x04,
   0x40, 0x00, 0x04, 0x40, 0x00, 0x01, 0x20, 0x80, 0x00, 0x10, 0x40, 0x00,
   0x08, 0x20, 0x00, 0x04, 0xd2, 0xaa, 0xca, 0xff, 0xff, 0x2d, 0x08, 0xd0,
   0xbf, 0xea, 0xc4, 0xff, 0x52, 0xb5, 0xff, 0xfb, 0xb9, 0x4a, 0x55, 0x56,
   0xa5, 0x2a, 0x55, 0x55, 0x95, 0x55, 0xa9, 0x4a, 0x55, 0x55, 0xa5, 0xaa,
   0xaa, 0x52, 0x55, 0x55, 0xa9, 0xaa, 0xaa, 0x0c, 0x6c, 0x55, 0x55, 0xff,
   0xff, 0x57, 0xa5, 0xff, 0x1f, 0xba, 0x52, 0x85, 0x6a, 0xff, 0x73, 0x00,
   0x07, 0x60, 0x80, 0x03, 0x30, 0x40, 0x01, 0x18, 0xa0, 0x00, 0x0c, 0x50,
   0x00, 0x06, 0x28, 0x00, 0x03, 0x14, 0x80, 0x01, 0x0a, 0xc0, 0x00, 0x05,
   0x48, 0xf5, 0x5b, 0xfd, 0xff, 0xff, 0xfa, 0xff, 0xa5, 0x5e, 0xaa, 0x7a,
   0xef, 0x3b, 0x40, 0x00, 0x00, 0x00, 0x00, 0x01, 0x00, 0x80, 0x00, 0x00,
   0x40, 0x00, 0x00, 0x20, 0x00, 0x00, 0x10, 0x00, 0x00, 0x08, 0x00, 0x00,
   0x04, 0x00, 0x00, 0x02, 0xc0, 0x5f, 0xb7, 0xe4, 0xff, 0xff, 0xff, 0x7f,
   0xa9, 0xab, 0xb5, 0xed, 0x7f, 0x04, 0x00, 0x00, 0x02, 0x20, 0x00, 0x00,
   0x10, 0x00, 0x00, 0x08, 0x00, 0x00, 0x04, 0x00, 0x00, 0x02, 0x00, 0x00,
   0x01, 0x00, 0x80, 0x00, 0x00, 0x40, 0x00, 0x00, 0x88, 0xfb, 0xdf, 0x0a,
   0xfd, 0xff, 0xbf, 0x45, 0xe9, 0x6f, 0xf7, 0xff, 0x00, 0x00, 0x40, 0x00,
   0x00, 0x00, 0x00, 0x01, 0x00, 0x80, 0x00, 0x00, 0x40, 0x00, 0x00, 0x20,
   0x00, 0x00, 0x10, 0x00, 0x00, 0x08, 0x00, 0x00, 0x04, 0x00, 0x00, 0x02,
   0x00, 0xff, 0xef, 0x55, 0x45, 0xdd, 0x52, 0xaa, 0x1e, 0xf6, 0xff, 0x40,
   0x00, 0x04, 0x00, 0x00, 0x02, 0x20, 0x00, 0x00, 0x10, 0x00, 0x00, 0x08,
   0x00, 0x00, 0x04, 0x00, 0x00, 0x02, 0x00, 0x00, 0x01, 0x00, 0x80, 0x00,
   0x00, 0x40, 0x00, 0x00, 0x08, 0x7e, 0xbf, 0xbf, 0x14, 0x91, 0xd2, 0xea,
   0x0f, 0xfd, 0x08, 0x80, 0x00, 0x00, 0x40, 0x00, 0x00, 0x00, 0x00, 0x01,
   0x00, 0x80, 0x00, 0x00, 0x40, 0x00, 0x00, 0x20, 0x00, 0x00, 0x10, 0x00,
   0x00, 0x08, 0x00, 0x00, 0x04, 0x00, 0x00, 0x02, 0x00, 0xf0, 0xff, 0x6a,
   0x6b, 0x6a, 0xad, 0x7f, 0x01, 0x00, 0x00, 0x00, 0x00, 0x04, 0x00, 0x00,
   0x02, 0x20, 0x00, 0x00, 0x10, 0x00, 0x00, 0x08, 0x00, 0x00, 0x04, 0x00,
   0x00, 0x02, 0x00, 0x00, 0x01, 0x00, 0x80, 0x00, 0x00, 0x40, 0x00, 0x00,
   0x08, 0x80, 0xf7, 0xff, 0xdf, 0xdf, 0xfd, 0x1e, 0x00, 0x01, 0x08, 0x80,
   0x00, 0x00, 0x40, 0x00, 0x00, 0x00, 0x00, 0x01, 0x00, 0x80, 0x00, 0x00,
   0x40, 0x00, 0x00, 0x20, 0x00, 0x00, 0x10, 0x00, 0x00, 0x08, 0x00, 0x00,
   0x04, 0x00, 0x00, 0x02, 0x00, 0x40, 0xfa, 0xdf, 0x7e, 0xfd, 0xff, 0x10,
   0x00, 0x00, 0x00, 0x00, 0x00, 0x04, 0x00, 0x00, 0x02, 0x20, 0x00, 0x00,
   0x10, 0x00, 0x00, 0x08, 0x00, 0x00, 0x04, 0x00, 0x00, 0x02, 0x00, 0x00,
   0x01, 0x00, 0x80, 0x00, 0x00, 0x40, 0x00, 0x00, 0x08, 0x40, 0xe0, 0xff,
   0xfb, 0xdf, 0x03, 0x00, 0x00, 0x01, 0x08, 0x80, 0x00, 0x04, 0x40, 0x00,
   0x02, 0x20, 0x00, 0x01, 0x10, 0x80, 0x00, 0x08, 0x40, 0x00, 0x04, 0x20,
   0x00, 0x02, 0x10, 0x00, 0x01, 0x08, 0x80, 0x00, 0x04, 0x40, 0x00, 0x02,
   0x10, 0x20, 0x00, 0xec, 0xff, 0x81, 0x07, 0x18, 0x80, 0x02, 0x08, 0x00,
   0x01, 0x04, 0x80, 0x00, 0x02, 0x40, 0x00, 0x01, 0x20, 0x80, 0x00, 0x10,
   0x40, 0x00, 0x08, 0x20, 0x00, 0x04, 0x10, 0x00, 0x02, 0x08, 0x00, 0x01,
   0x04, 0x80, 0x00, 0x02, 0xb5, 0xaa, 0x55, 0x99, 0xd6, 0x56, 0x55, 0xa5,
   0xaa, 0x56, 0xb5, 0x6a, 0xab, 0xaa, 0xaa, 0x55, 0x55, 0xd5, 0xaa, 0xaa,
   0x6a, 0x55, 0x55, 0xb5, 0xaa, 0xaa, 0x5a, 0x55, 0x55, 0xad, 0xaa, 0xaa,
   0x56, 0x55, 0x55, 0xab, 0xaa, 0xaa, 0x55, 0x0d, 0x08, 0x80, 0x00, 0x02,
   0x40, 0x00, 0x02, 0x30, 0x00, 0x01, 0x10, 0x80, 0x00, 0x08, 0x40, 0x00,
   0x04, 0x20, 0x00, 0x02, 0x10, 0x00, 0x01, 0x08, 0x80, 0x00, 0x04, 0x40,
   0x00, 0x02, 0x20, 0x00, 0x01, 0x10, 0x80, 0x00, 0x08, 0x40, 0x00, 0x04,
   0x00, 0x40, 0x00, 0x04, 0x00, 0x00, 0x00, 0x00, 0x00, 0x00, 0x08, 0x00,
   0x00, 0x04, 0x00, 0x00, 0x02, 0x00, 0x00, 0x01, 0x00, 0x80, 0x00, 0x00,
   0x40, 0x00, 0x00, 0x20, 0x00, 0x00, 0x10, 0x00, 0x00, 0x08, 0x00, 0x00,
   0x04, 0x00, 0x00, 0x02, 0x08, 0x00, 0x00, 0x00, 0x20, 0x00, 0x02, 0x10,
   0x00, 0x01, 0x00, 0x80, 0x00, 0x00, 0x40, 0x00, 0x00, 0x20, 0x00, 0x00,
   0x10, 0x00, 0x00, 0x08, 0x00, 0x00, 0x04, 0x00, 0x00, 0x02, 0x00, 0x00,
   0x01, 0x00, 0x80, 0x00, 0x00, 0x40, 0x00, 0x00, 0x00, 0x40, 0x00, 0x04,
   0x00, 0x00, 0x00, 0x00, 0x00, 0x00, 0x08, 0x00, 0x00, 0x04, 0x00, 0x00,
   0x02, 0x00, 0x00, 0x01, 0x00, 0x80, 0x00, 0x00, 0x40, 0x00, 0x00, 0x20,
   0x00, 0x00, 0x10, 0x00, 0x00, 0x08, 0x00, 0x00, 0x04, 0x00, 0x00, 0x02,
   0x08, 0x00, 0x00, 0x00, 0x20, 0x00, 0x02, 0x10, 0x00, 0x01, 0x00, 0x80,
   0x00, 0x00, 0x40, 0x00, 0x00, 0x20, 0x00, 0x00, 0x10, 0x00, 0x00, 0x08,
   0x00, 0x00, 0x04, 0x00, 0x00, 0x02, 0x00, 0x00, 0x01, 0x00, 0x80, 0x00,
   0x00, 0x40, 0x00, 0x00, 0x00, 0x40, 0x00, 0x04, 0x00, 0x00, 0x00, 0x00,
   0x00, 0x00, 0x08, 0x00, 0x00, 0x04, 0x00, 0x00, 0x02, 0x00, 0x00, 0x01,
   0x00, 0x80, 0x00, 0x00, 0x40, 0x00, 0x00, 0x20, 0x00, 0x00, 0x10, 0x00,
   0x00, 0x08, 0x00, 0x00, 0x04, 0x00, 0x00, 0x02, 0x08, 0x00, 0x00, 0x00,
   0x20, 0x00, 0x02, 0x10, 0x00, 0x01, 0x00, 0x80, 0x00, 0x00, 0x40, 0x00,
   0x00, 0x20, 0x00, 0x00, 0x10, 0x00, 0x00, 0x08, 0x00, 0x00, 0x04, 0x00,
   0x00, 0x02, 0x00, 0x00, 0x01, 0x00, 0x80, 0x00, 0x00, 0x40, 0x00, 0x00,
   0x00, 0x40, 0x00, 0x04, 0x00, 0x00, 0x00, 0x00, 0x00, 0x00, 0x08, 0x00,
   0x00, 0x04, 0x00, 0x00, 0x02, 0x00, 0x00, 0x01, 0x00, 0x80, 0x00, 0x00,
   0x40, 0x00, 0x00, 0x20, 0x00, 0x00, 0x10, 0x00, 0x00, 0x08, 0x00, 0x00,
   0x04, 0x00, 0x00, 0x02, 0x08, 0x00, 0x00, 0x00, 0x20, 0x00, 0x02, 0x10,
   0x00, 0x01, 0x00, 0x80, 0x00, 0x00, 0x40, 0x00, 0x00, 0x20, 0x00, 0x00,
   0x10, 0x00, 0x00, 0x08, 0x00, 0x00, 0x04, 0x00, 0x00, 0x02, 0x00, 0x00,
   0x01, 0x00, 0x80, 0x00, 0x00, 0x40, 0x00, 0x00, 0x08, 0x40, 0x00, 0x06,
   0x20, 0x00, 0x02, 0x10, 0x00, 0x01, 0x08, 0x80, 0x00, 0x04, 0x40, 0x00,
   0x02, 0x20, 0x00, 0x01, 0x10, 0x80, 0x00, 0x08, 0x40, 0x00, 0x04, 0x20,
   0x00, 0x02, 0x10, 0x00, 0x01, 0x08, 0x80, 0x00, 0x04, 0x40, 0x00, 0x02,
   0xa6, 0xaa, 0xaa, 0x51, 0x55, 0xd5, 0xa8, 0xaa, 0x6a, 0x54, 0x55, 0x35,
   0xaa, 0xaa, 0x1a, 0x55, 0x55, 0x8d, 0xaa, 0xaa, 0x46, 0x55, 0x55, 0xa3,
   0xaa, 0xaa, 0x51, 0x55, 0xd5, 0xa8, 0xaa, 0x6a, 0x54, 0x55, 0x35, 0xaa,
   0xaa, 0x1a, 0x55, 0x15, 0x1c, 0xa0, 0x00, 0x0e, 0x50, 0x00, 0x07, 0x28,
   0x80, 0x03, 0x14, 0xc0, 0x01, 0x0a, 0xe0, 0x00, 0x05, 0x70, 0x80, 0x02,
   0x38, 0x40, 0x01, 0x1c, 0xa0, 0x00, 0x0e, 0x50, 0x00, 0x07, 0x28, 0x80,
   0x03, 0x14, 0xc0, 0x01, 0x0a, 0xe0, 0x00, 0x05, 0x00, 0x40, 0x00, 0x00,
   0x20, 0x00, 0x00, 0x10, 0x00, 0x00, 0x08, 0x00, 0x00, 0x04, 0x00, 0x00,
   0x02, 0x00, 0x00, 0x01, 0x00, 0x80, 0x00, 0x00, 0x40, 0x00, 0x00, 0x20,
   0x00, 0x00, 0x10, 0x00, 0x00, 0x08, 0x00, 0x00, 0x04, 0x00, 0x00, 0x02,
   0x08, 0x00, 0x00, 0x04, 0x00, 0x00, 0x02, 0x00, 0x00, 0x01, 0x00, 0x80,
   0x00, 0x00, 0x40, 0x00, 0x00, 0x20, 0x00, 0x00, 0x10, 0x00, 0x00, 0x08,
   0x00, 0x00, 0x04, 0x00, 0x00, 0x02, 0x00, 0x00, 0x01, 0x00, 0x80, 0x00,
   0x00, 0x40, 0x00, 0x00, 0x00, 0x40, 0x00, 0x00, 0x20, 0x00, 0x00, 0x10,
   0x00, 0x00, 0x08, 0x00, 0x00, 0x04, 0x00, 0x00, 0x02, 0x00, 0x00, 0x01,
   0x00, 0x80, 0x00, 0x00, 0x40, 0x00, 0x00, 0x20, 0x00, 0x00, 0x10, 0x00,
   0x00, 0x08, 0x00, 0x00, 0x04, 0x00, 0x00, 0x02, 0x08, 0x00, 0x00, 0x04,
   0x00, 0x00, 0x02, 0x00, 0x00, 0x01, 0x00, 0x80, 0x00, 0x00, 0x40, 0x00,
   0x00, 0x20, 0x00, 0x00, 0x10, 0x00, 0x00, 0x08, 0x00, 0x00, 0x04, 0x00,
   0x00, 0x02, 0x00, 0x00, 0x01, 0x00, 0x80, 0x00, 0x00, 0x40, 0x00, 0x00 };
