/* XPM */
static char * sxemacs_icon3_xpm[] = {
"48 48 65 1",
" 	c None",
".	c #BD01B9",
"+	c #A019A2",
"@	c #932592",
"#	c #B018B1",
"$	c #953F97",
"%	c #FF00FC",
"&	c #C72BC8",
"*	c #F915FB",
"=	c #E02BDF",
"-	c #B34BB4",
";	c #AD52AF",
">	c #C546C4",
",	c #F726F9",
"'	c #F330F6",
")	c #AD68B2",
"!	c #DA4ADD",
"~	c #CE53D1",
"{	c #B765B9",
"]	c #F43DF7",
"^	c #E549EA",
"/	c #CC60CF",
"(	c #C569C9",
"_	c #F34BF8",
":	c #E35CE2",
"<	c #E65AED",
"[	c #F751F5",
"}	c #AC86B4",
"|	c #F359FA",
"1	c #E367E6",
"2	c #DC6FDF",
"3	c #A497AD",
"4	c #D178DA",
"5	c #EF65F3",
"6	c #F863FA",
"7	c #C985D2",
"8	c #FC71FA",
"9	c #F277FA",
"0	c #E881F3",
"a	c #F979F5",
"b	c #ED81EE",
"c	c #B1ADB5",
"d	c #F482FB",
"e	c #DA94E3",
"f	c #E68BF4",
"g	c #E88CEC",
"h	c #CFA0D7",
"i	c #F88DF9",
"j	c #EE96EE",
"k	c #C5B1D0",
"l	c #F399FB",
"m	c #F2A5FA",
"n	c #E9ABF8",
"o	c #D7BCE0",
"p	c #DFB9ED",
"q	c #D3C8DB",
"r	c #F7B8FE",
"s	c #F0BEF9",
"t	c #EEC4FE",
"u	c #E7CDEF",
"v	c #FDC1FD",
"w	c #EDCAF9",
"x	c #F8D4FC",
"y	c #F2DDFE",
"z	c #F5E9FC",
"                                                ",
"                                                ",
"                                                ",
"                                                ",
"                                                ",
"                                                ",
"                                                ",
"                                                ",
"                                                ",
"                                                ",
"                                                ",
"          qqypre0099ffnpo3qquuspooooqqk3c ck    ",
"        qyys4^''*_'*'**=2ntsn6%%%***,_gswm<8d90m",
"       uywn=**%|4{ @-(,%%'b>-{2,%%%%]/;:::*%%]^/",
"      uwtl=*%%]{   &=>1*%*( .=!5*%%%^ @50f_*1)  ",
"     htsn!*%%*0-    ]]:6%_; !|6:'%%%]/pwt0*<    ",
"     svrj,*%%%b$    :858%9$  66a6*%%,bwym'<     ",
"     vrm0*%%%*a4    288d'2   28a0*%%%dwt]<      ",
"    }rrmb%%%%%'l7   ![]>~;    aaf[%%%_r|]       ",
"     rmjb*%%%%*'je   #        0dgi*%%%%])       ",
"     biig'%%%%%%':j7          4iij,%%%*(        ",
"     /652b*%%%%%%*'<f7         dag6%%%'(        ",
"      >!!/b,%%%%%*%%,5e        blji*%%%a        ",
"       .=.>4|*%%%%%%%'_j       oxxg*%%%[(       ",
"         ..+;4<**%%%%%%57     qzyt'%%%%,2       ",
"          ++#@-4<%%%%%%%d    kxwn]*'%%%%5       ",
"      }      #.#-9*%%%%%5    wwn=,>!,%%%'~      ",
"  wwrml/      &^^/9%%%%*[   pvn_%!&]]%%%':      ",
" emld'[~       ![10'%%%%5  nrl<,^#']_*%%%|      ",
" gdi6**<       (iil]%%**/ hrn5*'- |_^]%%%]2     ",
" da9_*%6>      hvvr'%%%|)oyxf'*>  1di8%%%%bo    ",
" 6||]%%]a/     qxyr=%%*e}zym**9( kywt9%%%%*_8   ",
"/8d6=%%%6b7   czzy:%%*ihzy7'**|ggtpl],*]^:~/    ",
"jlld,%%%%<lhqqzzx1*%]7nvl^**%%,|-1/(-           ",
"18691,*%%%'<lld6=*_g})eg^!~(()                  ",
" ^=.-(41[_','']<17  $-;                         ",
"   +@@$ ))74{)                                  ",
"                                                ",
"                                                ",
"                                                ",
"                                                ",
"                                                ",
"                                                ",
"                                                ",
"                                                ",
"                                                ",
"                                                ",
"                                                "};
