/* XPM */
/* A trash can, drawn by jwz */
static char *trash[] = {
/*   width height ncolors chars_per_pixel x_hot y_hot */
"     32     46       4    1		   16    23",
/*  colors */
"  c None	m None",
"= c gray85	m white",
"- c gray75	m white",
"# c black	m black",
/*  pixels */
"                                ",
"             ######             ",
"            #======#            ",
"            #==# ==#            ",
"   ##########################   ",
"  #==========================#  ",
"  ####=#######################  ",
"   #========================#   ",
"    #======================#    ",
"    #=====##====##====##===#    ",
"  ###-#==#--#==#--#==#--#==###  ",
" #--#-#==#--#==#--#==#--#==#--# ",
" ####-#==#--#==#--#==#--#==#### ",
"    #-#==#--#==#--#==#--#==#    ",
"    #-#==#--#==#--#==#--#==#    ",
"    #-#==#--#==#--#==#--#==#    ",
"    #-#==#--#==#--#==#--#==#    ",
"    #-#==#--#==#--#==#--#==#    ",
"    #-#==#--#==#--#==#--#==#    ",
"    #-#==#--#==#--#==#--#==#    ",
"    #-#==#--#==#--#==#--#==#    ",
"    #-#==#--#==#--#==#--#==#    ",
"    #-#==#--#==#--#==#--#==#    ",
"    #-#==#--#==#--#==#--#==#    ",
"    #-#==#--#==#--#==#--#==#    ",
"    #-#==#--#==#--#==#--#==#    ",
"    #-#==#--#==#--#==#--#==#    ",
"    #-#==#--#==#--#==#--#==#    ",
"    #-#==#--#==#--#==#--#==#    ",
"    #-#==#--#==#--#==#--#==#    ",
"    #-#==#--#==#--#==#--#==#    ",
"    #-#==#--#==#--#==#--#==#    ",
"    #-#==#--#==#--#==#--#==#    ",
"    #-#==#--#==#--#==#--#==#    ",
"    #-#==#--#==#--#==#--#==#    ",
"    #-#==#--#==#--#==#--#==#    ",
"    #-#==#--#==#--#==#--#==#    ",
"    #-#==#--#==#--#==#--#==#    ",
"    #-#==#--#==#--#==#--#==#    ",
"    #-#==#--#==#--#==#--#==#    ",
"    #======================#    ",
"    #======================#    ",
"    #==######=###########==#    ",
"   #========================#   ",
"    ########################    ",
"                                "
};
