/* XPM */
static char *Xemacs48_xpm[] = {
/* width height ncolors chars_per_pixel */
"48 48 12 1",
/* colors */
"a c #ADADADADADAD m white",
"b c #737373737373 m black",
"c c #636363636363 m black",
"d c #424242424242 m black",
"  c #DEDEDEDEDEDE m white s BgColor",
"g c #FFFF00000000 m black",
"h c #949494949494 m black",
"i c #636363636363 m black",
"j c #FFFFFFFFFFFF m white",
"k c #FFFFFFFF0000 m white",
"l c #DEDEDEDEDEDE m white",
"m c #BDBDBDBDBDBD m white",
/* pixels */
"jjjjjjjjjjjjjjjjjjjjjjjjjjjjjjjjjjjjjjjjjjjjjjjc",
"j                                             mc",
"j                                             mc",
"j                                             mc",
"j          cccccccccccccccccccccccccccccccci  mc",
"j          cjjjjjjjjjjjjjjjjjjjjjjjjjjjjjjji  mc",
"j          cjjjjjjjjjjjjjjjjjjjjjjjjjjjjjjjia mc",
"j          cjjjjjjjjjjjjjjjjjjjjjjjjjjjjjjjia mc",
"j          cjjjjjjjjjjjjjjjjjjjjjjjjjjjjjjjia mc",
"j          cjjjjjjjmmmiibiibmmbbmmjjjjjjjjjia mc",
"j          cjjjjjjjjjjjjjjjjjjjjjjjjjjjjjjjia mc",
"j  jjjjjjd cjjjjjjdjjjjjjjjjjjjdjjjjjjjjjjjia mc",
"j  jgggggd cjgggggdjjggggggggggdiibmmjjjjjjia mc",
"j   jggggd cjggggdjjjggggggggggdjjjjjjjjjjjia mc",
"j   jgggggdjgggggdaajggggggggggdaaajjjjjjjjia mc",
"j    jggggdjggggdaaajgggggddddddaaabbibbmjjia mc",
"j    jggggggggggdaakjgggggdkkkkakkkkkkkkkjjia mc",
"j     jggggggggdaaakjgggggdjjjjjkkkkkkkkkjjia mc",
"j     jggggggggdaaakjggggggggggdaaammkkkkjjia mc",
"j      jggggggdaaaakjggggggggggdkkkkkkkkkjjia mc",
"j     jggggggggdaaakjggggggggggdkkkkkkkkkjjia mc",
"j     jggggggggdaalljgggggddddddaaibbbmmjjjia mc",
"j    jggggggggggdaaljgggggdaaaaaaaajjjjjjjjia mc",
"j    jggggddggggdaaljgggggdjjjjjaaajjjjjjjjia mc",
"j   jgggggdjgggggdaajggggggggggdaaammmjjjjjia mc",
"j   jggggdaajggggdaajggggggggggdjjjjjjjjjjjia mc",
"j  jgggggdaajgggggdajggggggggggdiiibbbbbijjia mc",
"j  dddddddaadddddddaddddddddddddaaajjjjjjjjia mc",
"j      aaaaacjjjaaaaaajjaaiiiiaaiiibbbbbijjia mc",
"j      aaaaacjjjaaaaaajjaaaaaaaaaaajjjjjjjjia mc",
"j           cjjjjjjjjjjjjjjjjjjjjjjjjjjjjjjia mc",
"j           cjjjjjjjjjjjjiimbbbimmbmmjjjjjjia mc",
"j           cjjjjhghjjjjjjjjjjjjjjjjjjjjjjjia mc",
"j           cjjjhggghjjjjjjjjjjjjjjjjjjjjjjia mc",
"j           cjjjgggggmbbbmmibbbmjjjjjjjjjjjia mc",
"j           cjjjhggghjjjjjjjjjjjjjjjjjjjjjjia mc",
"j           cjjjjhghjjjjjjjjjjjjjjjjjjjjjjjia mc",
"j           cjjjjjjjjjjjjjjmbbimaabbbmjjjjjia mc",
"j           cjjjjjjjjjjjjjjjjjjjjjjjjjjjjjjia mc",
"j           cjjjjjjjjjjjjjjjjjjjjjjjjjjjjjjia mc",
"j           cjjjjjjjjjjjjjjjjjjjjjibbbmmmjjia mc",
"j           cjjjjjjjjjjjjjjjjjjjjjjjjjjjjjjia mc",
"j           cjjjjjjjjjjjjjjjjjjjjjjjjjjjjjjia mc",
"j           iiiiiiiiiiiiiiiiiiiiiiiiiiiiiiiia mc",
"j             aaaaaaaaaaaaaaaaaaaaaaaaaaaaaaa mc",
"j                                             mc",
"jmmmmmmmmmmmmmmmmmmmmmmmmmmmmmmmmmmmmmmmmmmmmmmc",
"cccccccccccccccccccccccccccccccccccccccccccccccc"
};
