/* XPM */
static char * xemacs_xpm[] = {
/* width height num_colors chars_per_pixel */
"48 48 11 1",
/* colors */
" 	s None	c none",
".	c #e5e5e5",
"X	c #cccccc",
"o	c #b2b2b2",
"O	c #999999",
"+	c #7f7f7f",
"@	c #666666",
"#	c #4c4c4c",
"$	c #323232",
"%	c #191919",
"&	c black",
/* pixels */
"                                                ",
"                                                ",
"                                                ",
"                 ............     .........     ",
"                XXXXXXXXXXXX.    XXXXXXXXX.     ",
"               ooooooooooooX    oooooooooX      ",
"              OOOOOOOOOOOOo    OOOOOOOOOo       ",
"             ++++++++++++O    +++++++++O        ",
"            @@@@@@@@@@@@+..  @@@@@@@@@+         ",
"           ############@XX. #########@          ",
"          $$$$$$$$$$$$#ooX.$$$$$$$$$#           ",
"         %%%%%%%%%%%%$OOoX%%%%%%%%%$            ",
"        &&&&&&&&&&&&%++Oo&&&&&&&&&%             ",
"        &&&&&&&&&&&&@@+Oo&&&&&&&&&              ",
"            &&&&&&$##@+OOoo&&&&Oo               ",
"            &&&&&%$$#@++OOo&&&+O                ",
"             &&&&%%$#@@++O&&&@+                 ",
"             &&&&&%$##@@+&&&#@                  ",
"             &&&&&%$$##@&&&$#..                 ",
"             &&&&&%%$$#&&&%$XX.                 ",
"              &&&&&%%$&&&&%ooX..                ",
"              &&&&&&%$&&&&OOoXX.                ",
"               &&&&&%&&&&++OooX..               ",
"                &&&&&&&&@@+OOoXX.               ",
"                &&&&&&&##@++OooX.               ",
"                &&&&&&$$#@@+OOoX..              ",
"                &&&&&%%$##@++OoXX.              ",
"                 &&&&&%$$#@@+OooX.              ",
"                &&&&&&%%$##@+OOoX.              ",
"               &&&&&&&&%$$#@++OoX..             ",
"              &&&&&&&&&%%$#@@+OoXX..            ",
"             &&&&#&&&&&&%$##@+OooXX..           ",
"            &&&&$o&&&&&&%$$#@+OOooXX...         ",
"           &&&&%OoX&&&&&%%$#@++OOooXXX          ",
"          &&&&&+Oooo&&&&&%$#@@++OOooo           ",
"          &&&&@+OOO &&&&&%$##@@++OOO            ",
"         +&&&#@+++   &&&&%$$##@@+++             ",
"        @&&&$#@@@    &&&&%%$$##@@@              ",
"       #&&&%$###     &&&&&%%$$###               ",
"      $&&&&%$$$     $&&&&&&%%$$$                ",
"     %&&&&&%%%     %&&&&&&&&%%%                 ",
"    &&&&&&&&&     &&&&&&&&&&&&                  ",
"                                                ",
"                                                ",
"                                                ",
"                                                ",
"                                                ",
"                                                "};
