/* XPM */
static char *option[] = {
/* width height num_colors chars_per_pixel */
"    17    17        4            1",
/* colors */
". c #000000",
"a c #a8b038",
"b c #f8f800",
"c s None c None",
/* pixels */
"ccccccccccccccccc",
"ccccccccccccccccc",
"cccccbbbbbbcccccc",
"ccccbbbbbbbbccccc",
"cccbbbaaaabbbcccc",
"ccbbbaaaaaabbbccc",
"cbbbaabbbaabbbbcc",
"cbbbaababaabbbbcc",
"cbbbbbbbaabbbbbcc",
"cbbbbbbaabbbbbbcc",
"cbbbbbbaabbbbbbcc",
"cbbbbbbbbbbbbbbcc",
"ccbbbbbaabbbbbccc",
"cccbbbbaabbbbcccc",
"ccccbbbbbbbbccccc",
"cccccbbbbbbcccccc",
"ccccccccccccccccc"
};
