/* XPM */
static char *noname[] = {
/* width height ncolors chars_per_pixel */
"64 64 17 1",
/* colors */
"` c #ABABAB",
"a c #C34C4C",
"b c #DBB794",
"c c #94DBB7",
"d c #DBFFEE",
"e c #A0A0A0",
"f c #BAEADA",
"g c #888888",
"h c #7C7C7C",
"i c #FFFFB7",
"j c #DB9494",
"k c #FFB7B7",
"l c #FFFFFF",
"m c #4C4C4C",
"n c #F3F3F3",
"o c #DBDBDB",
"p c #CFCFCF",
/* pixels */
"mmmmmmmmmmmmmmmmmmmmmmmmmmmmmmmmmmmmmmmmmmmmmmmmmmmmmmmmmmmmmmmm",
"mlllllllllllllllllllllllllllllllllllllllllllllllllllllllllllllom",
"mlnnnnnnnnnnnnnnnnnnnnnnnnnnnnnnnnnnnnnnnnnnnnnnnnnnnnnnnnnnnnpm",
"mloooooooooooooooooooooooooooooooooooooooooooooooooooooooooooopm",
"mlllllllllllllllllllllllllllllllllllllllllllllllllllllllllllllom",
"mlnnnnnnnnnnnnnnnnnnnnnnnnnnnnnnnnnnnnnnnnnnnnnnnnnnnnnnnnnnnnpm",
"mloooooooooooooooooooooooooooooooooooooooooooooooooooooooooooopm",
"mlllllllllllllllllllllllllllllllllllllllllllllllllllllllllllllom",
"mlnnnnnnnnnnnnnnnnnnnnnnnnnnnnnnnnnnnnnnnnnnnnnnnnnnnnnnnnnnnnpm",
"mloooooooooooooooooooooooooooooooooooooooooooooooooooooooooooopm",
"mlllllllllllllllllllllllllllllllllllllllllllllllllllllllllllllom",
"mlnnnnnnnnnnnnnnnnnnnnnnnnnnnnnnnnnnnnnnnnnnnnnnnnnnnnnnnnnnnnpm",
"mloooooooooooooooooooooooooooooooooooooooooooooooooooooooooooopm",
"mllllllllllllllll````````````````````````````````lllllllllllllom",
"mlnnnnnnnnnnnnnnn`oooooooooooooooooooooooooooooolnnnnnnnnnnnnnpm",
"mlooooooooooooooo`oooooooooooooooooooooooooooooolooooooooooooopm",
"mllllllllllllllll`oooooooooooooooooooooooooooooollllllllllllllom",
"mlnnnnnnnnnnnnnnn`ooooooooooooooooooooooommmoooolnnnnnnnnnnnnnpm",
"mlooooooooooooooo`ooogggggggggggggggoooomkkjmooolooooooooooooopm",
"mllllllllllllllll`oooglllllllllllllgmooomkkjmooollllllllllllllom",
"mlnnnnnnnnnnnnnnn`oooglllllllllllllglmommkjmmooolnnnnnnnnnnnnnpm",
"mlooooooooooooooo`ooogllmmmlmmmllllgllmmimmmeeoolooooooooooooopm",
"mllllllllllllllll`oooglllllllllllllmmmmiiibmeeoollllllllllllllom",
"mlnnnnnnnnnnnnnnn`ooogllmmmmmlllllllllmiibmeeooolnnnnnnnnnnnnnpm",
"mlooooooooooooooo`oooglllllllllllllllmiiibmeeooolooooooooooooopm",
"mllllllllllllllll`ooogllllmmmmmmmmlllmiibmeeoooollllllllllllllom",
"mlnnnnnnnnnnnnnnn`ooogllllllllllllllmiiibmeeoooolnnnnnnnnnnnnnpm",
"mlooooooooooooooo`oooglllllllmmmmlmmmiibmeeooooolooooooooooooopm",
"mllllllllllllllll`ooogllllllllllllllmiibmeeooooollllllllllllllom",
"mlnnnnnnnnnnnnnnn`oooglllmmmmlmmmmllmmimeeoooooolnnnnnnnnnnnnnpm",
"mlooooooooooooooo`oooglllllaaaaaaallmmmmeooooooolooooooooooooopm",
"mllllllllllllllll`oooglllaammmmmmmllmmemoooooooollllllllllllllom",
"mlnnnnnnnnnnnnnnn`oooglllalllllllllameemoooooooolnnnnnnnnnnnnnpm",
"mlooooooooooooooo`oooglllaallmmmmmaahllmoooooooolooooooooooooopm",
"mllllllllllllllll`oooglllllaaaaaaalllllmoooooooollllllllllllllom",
"mlnnnnnnnnnnnnnnn`ooogllllmmlmmmmmlllllmoooooooolnnnnnnnnnnnnnpm",
"mlooooooooooooooo`oooglllllllllllllllllmoooooooolooooooooooooopm",
"mllllllllllllllll`oooglllmmmlllllllllllmoooooooollllllllllllllom",
"mlnnnnnnnnnnnnnnn`oooglllllllllllllllllmoooooooolnnnnnnnnnnnnnpm",
"mlooooooooooooooo`oooglllllllllllllllllmoooooooolooooooooooooopm",
"mllllllllllllllll`ooommmmmmmmmmmmmmmmmmmoooooooollllllllllllllom",
"mlnnnnnnnnnnnnnnn`oooooooooooooooooooooooooooooolnnnnnnnnnnnnnpm",
"mlooooooooooooooo`oooooooooooooooooooooooooooooolooooooooooooopm",
"mllllllllllllllll`oooooooooooooooooooooooooooooollllllllllllllom",
"mlnnnnnnnnnnnnnnn`lllllllllllllllllllllllllllllllnnnnnnnnnnnnnpm",
"mloooooooooooooooooooooooooooooooooooooooooooooooooooooooooooopm",
"mlllllllllllllllllllllllllllllllllllllllllllllllllllllllllllllom",
"mdffffffffffffffffffffffffffffffffffffffffffffffffffffffffffffcm",
"mdffffffffffffffffffffffffffffffffffffffffffffffffffffffffffffcm",
"mdffffffffffffffffffffffffffffffffffffffffffffffffffffffffffffcm",
"mdffffffffffffffffffffffffffffffffffffffffffffffffffffffffffffcm",
"mdffffffffffffffffffffffffffffffffffffffffffffffffffffffffffffcm",
"mdffffffffffffffffffffffffffffffffffffffffffffffffffffffffffffcm",
"mdffffffffffffffffffffffffffffffffffffffffffffffffffffffffffffcm",
"mdffffffffffffffffffffffffffffffffffffffffffffffffffffffffffffcm",
"mdffffffffffffffffffffffffffffffffffffffffffffffffffffffffffffcm",
"mdffffffffffffffffffffffffffffffffffffffffffffffffffffffffffffcm",
"mdffffffffffffffffffffffffffffffffffffffffffffffffffffffffffffcm",
"mdffffffffffffffffffffffffffffffffffffffffffffffffffffffffffffcm",
"mdffffffffffffffffffffffffffffffffffffffffffffffffffffffffffffcm",
"mdffffffffffffffffffffffffffffffffffffffffffffffffffffffffffffcm",
"mdffffffffffffffffffffffffffffffffffffffffffffffffffffffffffffcm",
"mfcccccccccccccccccccccccccccccccccccccccccccccccccccccccccccccm",
"mmmmmmmmmmmmmmmmmmmmmmmmmmmmmmmmmmmmmmmmmmmmmmmmmmmmmmmmmmmmmmmm"
};
